<svg version="1.1" viewBox="0.0 0.0 600.0 371.0" fill="none" stroke="none" stroke-linecap="square" stroke-miterlimit="10" width="600" height="371" xmlns:xlink="http://www.w3.org/1999/xlink" xmlns="http://www.w3.org/2000/svg"><path fill="#ffffff" d="M0 0L600.0 0L600.0 371.0L0 371.0L0 0Z" fill-rule="nonzero"/><path stroke="#333333" stroke-width="1.0" stroke-linecap="butt" d="M48.5 332.5L581.5 332.5" fill-rule="nonzero"/><path stroke="#cccccc" stroke-width="1.0" stroke-linecap="butt" d="M48.5 262.5L581.5 262.5" fill-rule="nonzero"/><path stroke="#cccccc" stroke-width="1.0" stroke-linecap="butt" d="M48.5 192.5L581.5 192.5" fill-rule="nonzero"/><path stroke="#cccccc" stroke-width="1.0" stroke-linecap="butt" d="M48.5 122.5L581.5 122.5" fill-rule="nonzero"/><path stroke="#cccccc" stroke-width="1.0" stroke-linecap="butt" d="M48.5 51.5L581.5 51.5" fill-rule="nonzero"/><clipPath id="id_0"><path d="M48.55 51.916668L581.45 51.916668L581.45 332.45L48.55 332.45L48.55 51.916668Z" clip-rule="nonzero"/></clipPath><path stroke="#000000" stroke-width="2.0" stroke-linecap="butt" stroke-opacity="0.0" clip-path="url(#id_0)" d="M104.0 332.0L79.0 332.0L79.0 107.0C79.0 105.89543 79.89543 105.0 81.0 105.0L102.0 105.0C103.10457 105.0 104.0 105.89543 104.0 107.0Z" fill-rule="nonzero"/><path fill="#9900ff" clip-path="url(#id_0)" d="M104.0 332.0L79.0 332.0L79.0 107.0C79.0 105.89543 79.89543 105.0 81.0 105.0L102.0 105.0C103.10457 105.0 104.0 105.89543 104.0 107.0Z" fill-rule="nonzero"/><path stroke="#000000" stroke-width="2.0" stroke-linecap="butt" stroke-opacity="0.0" clip-path="url(#id_0)" d="M188.0 332.0L163.0 332.0L163.0 118.0C163.0 116.89543 163.89543 116.0 165.0 116.0L186.0 116.0C187.10457 116.0 188.0 116.89543 188.0 118.0Z" fill-rule="nonzero"/><path fill="#9900ff" clip-path="url(#id_0)" d="M188.0 332.0L163.0 332.0L163.0 118.0C163.0 116.89543 163.89543 116.0 165.0 116.0L186.0 116.0C187.10457 116.0 188.0 116.89543 188.0 118.0Z" fill-rule="nonzero"/><path stroke="#000000" stroke-width="2.0" stroke-linecap="butt" stroke-opacity="0.0" clip-path="url(#id_0)" d="M272.0 332.0L247.0 332.0L247.0 110.0C247.0 108.89543 247.89543 108.0 249.0 108.0L270.0 108.0C271.10458 108.0 272.0 108.89543 272.0 110.0Z" fill-rule="nonzero"/><path fill="#9900ff" clip-path="url(#id_0)" d="M272.0 332.0L247.0 332.0L247.0 110.0C247.0 108.89543 247.89543 108.0 249.0 108.0L270.0 108.0C271.10458 108.0 272.0 108.89543 272.0 110.0Z" fill-rule="nonzero"/><path stroke="#000000" stroke-width="2.0" stroke-linecap="butt" stroke-opacity="0.0" clip-path="url(#id_0)" d="M356.0 332.0L331.0 332.0L331.0 110.0C331.0 108.89543 331.89542 108.0 333.0 108.0L354.0 108.0C355.10458 108.0 356.0 108.89543 356.0 110.0Z" fill-rule="nonzero"/><path fill="#9900ff" clip-path="url(#id_0)" d="M356.0 332.0L331.0 332.0L331.0 110.0C331.0 108.89543 331.89542 108.0 333.0 108.0L354.0 108.0C355.10458 108.0 356.0 108.89543 356.0 110.0Z" fill-rule="nonzero"/><path stroke="#000000" stroke-width="2.0" stroke-linecap="butt" stroke-opacity="0.0" clip-path="url(#id_0)" d="M440.0 332.0L415.0 332.0L415.0 164.0C415.0 162.89543 415.89542 162.0 417.0 162.0L438.0 162.0C439.10458 162.0 440.0 162.89543 440.0 164.0Z" fill-rule="nonzero"/><path fill="#9900ff" clip-path="url(#id_0)" d="M440.0 332.0L415.0 332.0L415.0 164.0C415.0 162.89543 415.89542 162.0 417.0 162.0L438.0 162.0C439.10458 162.0 440.0 162.89543 440.0 164.0Z" fill-rule="nonzero"/><path stroke="#000000" stroke-width="2.0" stroke-linecap="butt" stroke-opacity="0.0" clip-path="url(#id_0)" d="M524.0 332.0L499.0 332.0L499.0 173.0C499.0 171.89543 499.89542 171.0 501.0 171.0L522.0 171.0C523.10455 171.0 524.0 171.89543 524.0 173.0Z" fill-rule="nonzero"/><path fill="#9900ff" clip-path="url(#id_0)" d="M524.0 332.0L499.0 332.0L499.0 173.0C499.0 171.89543 499.89542 171.0 501.0 171.0L522.0 171.0C523.10455 171.0 524.0 171.89543 524.0 173.0Z" fill-rule="nonzero"/><path stroke="#000000" stroke-width="2.0" stroke-linecap="butt" stroke-opacity="0.0" clip-path="url(#id_0)" d="M131.0 332.0L106.0 332.0L106.0 124.0C106.0 122.89543 106.89543 122.0 108.0 122.0L129.0 122.0C130.10457 122.0 131.0 122.89543 131.0 124.0Z" fill-rule="nonzero"/><path fill="#a4c2f4" clip-path="url(#id_0)" d="M131.0 332.0L106.0 332.0L106.0 124.0C106.0 122.89543 106.89543 122.0 108.0 122.0L129.0 122.0C130.10457 122.0 131.0 122.89543 131.0 124.0Z" fill-rule="nonzero"/><path stroke="#000000" stroke-width="2.0" stroke-linecap="butt" stroke-opacity="0.0" clip-path="url(#id_0)" d="M215.0 332.0L190.0 332.0L190.0 136.0C190.0 134.89543 190.89543 134.0 192.0 134.0L213.0 134.0C214.10457 134.0 215.0 134.89543 215.0 136.0Z" fill-rule="nonzero"/><path fill="#a4c2f4" clip-path="url(#id_0)" d="M215.0 332.0L190.0 332.0L190.0 136.0C190.0 134.89543 190.89543 134.0 192.0 134.0L213.0 134.0C214.10457 134.0 215.0 134.89543 215.0 136.0Z" fill-rule="nonzero"/><path stroke="#000000" stroke-width="2.0" stroke-linecap="butt" stroke-opacity="0.0" clip-path="url(#id_0)" d="M299.0 332.0L274.0 332.0L274.0 107.0C274.0 105.89543 274.89542 105.0 276.0 105.0L297.0 105.0C298.10458 105.0 299.0 105.89543 299.0 107.0Z" fill-rule="nonzero"/><path fill="#a4c2f4" clip-path="url(#id_0)" d="M299.0 332.0L274.0 332.0L274.0 107.0C274.0 105.89543 274.89542 105.0 276.0 105.0L297.0 105.0C298.10458 105.0 299.0 105.89543 299.0 107.0Z" fill-rule="nonzero"/><path stroke="#000000" stroke-width="2.0" stroke-linecap="butt" stroke-opacity="0.0" clip-path="url(#id_0)" d="M383.0 332.0L358.0 332.0L358.0 111.0C358.0 109.89543 358.89542 109.0 360.0 109.0L381.0 109.0C382.10458 109.0 383.0 109.89543 383.0 111.0Z" fill-rule="nonzero"/><path fill="#a4c2f4" clip-path="url(#id_0)" d="M383.0 332.0L358.0 332.0L358.0 111.0C358.0 109.89543 358.89542 109.0 360.0 109.0L381.0 109.0C382.10458 109.0 383.0 109.89543 383.0 111.0Z" fill-rule="nonzero"/><path stroke="#000000" stroke-width="2.0" stroke-linecap="butt" stroke-opacity="0.0" clip-path="url(#id_0)" d="M467.0 332.0L442.0 332.0L442.0 154.0C442.0 152.89543 442.89542 152.0 444.0 152.0L465.0 152.0C466.10458 152.0 467.0 152.89543 467.0 154.0Z" fill-rule="nonzero"/><path fill="#a4c2f4" clip-path="url(#id_0)" d="M467.0 332.0L442.0 332.0L442.0 154.0C442.0 152.89543 442.89542 152.0 444.0 152.0L465.0 152.0C466.10458 152.0 467.0 152.89543 467.0 154.0Z" fill-rule="nonzero"/><path stroke="#000000" stroke-width="2.0" stroke-linecap="butt" stroke-opacity="0.0" clip-path="url(#id_0)" d="M551.0 332.0L526.0 332.0L526.0 150.0C526.0 148.89543 526.89545 148.0 528.0 148.0L549.0 148.0C550.10455 148.0 551.0 148.89543 551.0 150.0Z" fill-rule="nonzero"/><path fill="#a4c2f4" clip-path="url(#id_0)" d="M551.0 332.0L526.0 332.0L526.0 150.0C526.0 148.89543 526.89545 148.0 528.0 148.0L549.0 148.0C550.10455 148.0 551.0 148.89543 551.0 150.0Z" fill-rule="nonzero"/><path fill="#000000" d="M19.05 332.21564Q19.05 330.6844 19.3625 329.7625Q19.675 328.825 20.284374 328.325Q20.909374 327.825 21.846874 327.825Q22.534374 327.825 23.05 328.10626Q23.58125 328.3875 23.925 328.91876Q24.26875 329.4344 24.45625 330.1844Q24.64375 330.9344 24.64375 332.21564Q24.64375 333.73126 24.33125 334.65314Q24.034374 335.575 23.409374 336.09064Q22.8 336.59064 21.846874 336.59064Q20.6125 336.59064 19.89375 335.7Q19.05 334.6375 19.05 332.21564ZM20.128124 332.21564Q20.128124 334.325 20.628124 335.02814Q21.128124 335.73126 21.846874 335.73126Q22.58125 335.73126 23.065624 335.02814Q23.565624 334.325 23.565624 332.21564Q23.565624 330.09064 23.065624 329.40314Q22.58125 328.7 21.83125 328.7Q21.1125 328.7 20.675 329.3094Q20.128124 330.09064 20.128124 332.21564ZM26.64375 336.45L26.64375 335.2469L27.846874 335.2469L27.846874 336.45L26.64375 336.45ZM29.05 332.21564Q29.05 330.6844 29.3625 329.7625Q29.675 328.825 30.284374 328.325Q30.909374 327.825 31.846874 327.825Q32.534374 327.825 33.05 328.10626Q33.58125 328.3875 33.925 328.91876Q34.26875 329.4344 34.45625 330.1844Q34.64375 330.9344 34.64375 332.21564Q34.64375 333.73126 34.33125 334.65314Q34.034374 335.575 33.409374 336.09064Q32.8 336.59064 31.846874 336.59064Q30.6125 336.59064 29.89375 335.7Q29.05 334.6375 29.05 332.21564ZM30.128124 332.21564Q30.128124 334.325 30.628124 335.02814Q31.128124 335.73126 31.846874 335.73126Q32.58125 335.73126 33.065624 335.02814Q33.565624 334.325 33.565624 332.21564Q33.565624 330.09064 33.065624 329.40314Q32.58125 328.7 31.83125 328.7Q31.1125 328.7 30.675 329.3094Q30.128124 330.09064 30.128124 332.21564ZM36.05 332.21564Q36.05 330.6844 36.3625 329.7625Q36.675 328.825 37.284374 328.325Q37.909374 327.825 38.846874 327.825Q39.534374 327.825 40.05 328.10626Q40.58125 328.3875 40.925 328.91876Q41.26875 329.4344 41.45625 330.1844Q41.64375 330.9344 41.64375 332.21564Q41.64375 333.73126 41.33125 334.65314Q41.034374 335.575 40.409374 336.09064Q39.8 336.59064 38.846874 336.59064Q37.6125 336.59064 36.89375 335.7Q36.05 334.6375 36.05 332.21564ZM37.128124 332.21564Q37.128124 334.325 37.628124 335.02814Q38.128124 335.73126 38.846874 335.73126Q39.58125 335.73126 40.065624 335.02814Q40.565624 334.325 40.565624 332.21564Q40.565624 330.09064 40.065624 329.40314Q39.58125 328.7 38.83125 328.7Q38.1125 328.7 37.675 329.3094Q37.128124 330.09064 37.128124 332.21564Z" fill-rule="nonzero"/><path fill="#000000" d="M19.05 262.0823Q19.05 260.55106 19.3625 259.62918Q19.675 258.69168 20.284374 258.19168Q20.909374 257.69168 21.846874 257.69168Q22.534374 257.69168 23.05 257.97293Q23.58125 258.25418 23.925 258.78543Q24.26875 259.30106 24.45625 260.05106Q24.64375 260.80106 24.64375 262.0823Q24.64375 263.59793 24.33125 264.5198Q24.034374 265.44168 23.409374 265.9573Q22.8 266.4573 21.846874 266.4573Q20.6125 266.4573 19.89375 265.56668Q19.05 264.50418 19.05 262.0823ZM20.128124 262.0823Q20.128124 264.19168 20.628124 264.8948Q21.128124 265.59793 21.846874 265.59793Q22.58125 265.59793 23.065624 264.8948Q23.565624 264.19168 23.565624 262.0823Q23.565624 259.9573 23.065624 259.2698Q22.58125 258.56668 21.83125 258.56668Q21.1125 258.56668 20.675 259.17606Q20.128124 259.9573 20.128124 262.0823ZM26.64375 266.31668L26.64375 265.11356L27.846874 265.11356L27.846874 266.31668L26.64375 266.31668ZM33.01875 266.31668L31.971874 266.31668L31.971874 259.59793Q31.58125 259.9573 30.95625 260.3323Q30.346874 260.69168 29.8625 260.86356L29.8625 259.84793Q30.7375 259.42606 31.39375 258.84793Q32.065624 258.25418 32.346874 257.69168L33.01875 257.69168L33.01875 266.31668ZM36.05 262.0823Q36.05 260.55106 36.3625 259.62918Q36.675 258.69168 37.284374 258.19168Q37.909374 257.69168 38.846874 257.69168Q39.534374 257.69168 40.05 257.97293Q40.58125 258.25418 40.925 258.78543Q41.26875 259.30106 41.45625 260.05106Q41.64375 260.80106 41.64375 262.0823Q41.64375 263.59793 41.33125 264.5198Q41.034374 265.44168 40.409374 265.9573Q39.8 266.4573 38.846874 266.4573Q37.6125 266.4573 36.89375 265.56668Q36.05 264.50418 36.05 262.0823ZM37.128124 262.0823Q37.128124 264.19168 37.628124 264.8948Q38.128124 265.59793 38.846874 265.59793Q39.58125 265.59793 40.065624 264.8948Q40.565624 264.19168 40.565624 262.0823Q40.565624 259.9573 40.065624 259.2698Q39.58125 258.56668 38.83125 258.56668Q38.1125 258.56668 37.675 259.17606Q37.128124 259.9573 37.128124 262.0823Z" fill-rule="nonzero"/><path fill="#000000" d="M19.05 191.94896Q19.05 190.41771 19.3625 189.49583Q19.675 188.55833 20.284374 188.05833Q20.909374 187.55833 21.846874 187.55833Q22.534374 187.55833 23.05 187.83958Q23.58125 188.12083 23.925 188.65208Q24.26875 189.16771 24.45625 189.91771Q24.64375 190.66771 24.64375 191.94896Q24.64375 193.46458 24.33125 194.38646Q24.034374 195.30833 23.409374 195.82396Q22.8 196.32396 21.846874 196.32396Q20.6125 196.32396 19.89375 195.43333Q19.05 194.37083 19.05 191.94896ZM20.128124 191.94896Q20.128124 194.05833 20.628124 194.76146Q21.128124 195.46458 21.846874 195.46458Q22.58125 195.46458 23.065624 194.76146Q23.565624 194.05833 23.565624 191.94896Q23.565624 189.82396 23.065624 189.13646Q22.58125 188.43333 21.83125 188.43333Q21.1125 188.43333 20.675 189.04271Q20.128124 189.82396 20.128124 191.94896ZM26.64375 196.18333L26.64375 194.98021L27.846874 194.98021L27.846874 196.18333L26.64375 196.18333ZM34.596874 195.16771L34.596874 196.18333L28.909374 196.18333Q28.909374 195.80833 29.034374 195.44896Q29.253124 194.87083 29.721874 194.30833Q30.20625 193.74583 31.1125 193.01146Q32.51875 191.85521 33.003124 191.18333Q33.503124 190.51146 33.503124 189.91771Q33.503124 189.29271 33.05 188.87083Q32.596874 188.43333 31.878124 188.43333Q31.1125 188.43333 30.659374 188.88646Q30.20625 189.33958 30.190624 190.15208L29.1125 190.04271Q29.221874 188.82396 29.940624 188.19896Q30.675 187.55833 31.909374 187.55833Q33.14375 187.55833 33.8625 188.24583Q34.58125 188.93333 34.58125 189.94896Q34.58125 190.46458 34.3625 190.96458Q34.159374 191.44896 33.659374 192.01146Q33.175 192.55833 32.05 193.51146Q31.096874 194.30833 30.815624 194.60521Q30.55 194.88646 30.378124 195.16771L34.596874 195.16771ZM36.05 191.94896Q36.05 190.41771 36.3625 189.49583Q36.675 188.55833 37.284374 188.05833Q37.909374 187.55833 38.846874 187.55833Q39.534374 187.55833 40.05 187.83958Q40.58125 188.12083 40.925 188.65208Q41.26875 189.16771 41.45625 189.91771Q41.64375 190.66771 41.64375 191.94896Q41.64375 193.46458 41.33125 194.38646Q41.034374 195.30833 40.409374 195.82396Q39.8 196.32396 38.846874 196.32396Q37.6125 196.32396 36.89375 195.43333Q36.05 194.37083 36.05 191.94896ZM37.128124 191.94896Q37.128124 194.05833 37.628124 194.76146Q38.128124 195.46458 38.846874 195.46458Q39.58125 195.46458 40.065624 194.76146Q40.565624 194.05833 40.565624 191.94896Q40.565624 189.82396 40.065624 189.13646Q39.58125 188.43333 38.83125 188.43333Q38.1125 188.43333 37.675 189.04271Q37.128124 189.82396 37.128124 191.94896Z" fill-rule="nonzero"/><path fill="#000000" d="M19.05 121.81563Q19.05 120.28438 19.3625 119.3625Q19.675 118.425 20.284374 117.925Q20.909374 117.425 21.846874 117.425Q22.534374 117.425 23.05 117.70625Q23.58125 117.9875 23.925 118.51875Q24.26875 119.03438 24.45625 119.78438Q24.64375 120.53438 24.64375 121.81563Q24.64375 123.33125 24.33125 124.25313Q24.034374 125.175 23.409374 125.69063Q22.8 126.19063 21.846874 126.19063Q20.6125 126.19063 19.89375 125.3Q19.05 124.2375 19.05 121.81563ZM20.128124 121.81563Q20.128124 123.925 20.628124 124.62813Q21.128124 125.33125 21.846874 125.33125Q22.58125 125.33125 23.065624 124.62813Q23.565624 123.925 23.565624 121.81563Q23.565624 119.69063 23.065624 119.00313Q22.58125 118.3 21.83125 118.3Q21.1125 118.3 20.675 118.90938Q20.128124 119.69063 20.128124 121.81563ZM26.64375 126.05L26.64375 124.84688L27.846874 124.84688L27.846874 126.05L26.64375 126.05ZM29.05 123.78438L30.1125 123.64375Q30.284374 124.53438 30.721874 124.94063Q31.159374 125.33125 31.784374 125.33125Q32.534374 125.33125 33.05 124.81563Q33.565624 124.3 33.565624 123.53438Q33.565624 122.81563 33.08125 122.34688Q32.6125 121.8625 31.878124 121.8625Q31.58125 121.8625 31.128124 121.9875L31.253124 121.05Q31.3625 121.06563 31.425 121.06563Q32.096874 121.06563 32.628124 120.72188Q33.175 120.3625 33.175 119.62813Q33.175 119.05 32.784374 118.675Q32.39375 118.28438 31.76875 118.28438Q31.159374 118.28438 30.7375 118.675Q30.33125 119.06563 30.221874 119.83125L29.159374 119.64375Q29.346874 118.59688 30.034374 118.01875Q30.721874 117.425 31.7375 117.425Q32.440624 117.425 33.034374 117.7375Q33.628124 118.03438 33.940624 118.55Q34.253124 119.06563 34.253124 119.65938Q34.253124 120.20625 33.95625 120.675Q33.659374 121.12813 33.08125 121.39375Q33.83125 121.56563 34.253124 122.12813Q34.675 122.675 34.675 123.51875Q34.675 124.64375 33.846874 125.425Q33.034374 126.20625 31.784374 126.20625Q30.659374 126.20625 29.909374 125.53438Q29.159374 124.84688 29.05 123.78438ZM36.05 121.81563Q36.05 120.28438 36.3625 119.3625Q36.675 118.425 37.284374 117.925Q37.909374 117.425 38.846874 117.425Q39.534374 117.425 40.05 117.70625Q40.58125 117.9875 40.925 118.51875Q41.26875 119.03438 41.45625 119.78438Q41.64375 120.53438 41.64375 121.81563Q41.64375 123.33125 41.33125 124.25313Q41.034374 125.175 40.409374 125.69063Q39.8 126.19063 38.846874 126.19063Q37.6125 126.19063 36.89375 125.3Q36.05 124.2375 36.05 121.81563ZM37.128124 121.81563Q37.128124 123.925 37.628124 124.62813Q38.128124 125.33125 38.846874 125.33125Q39.58125 125.33125 40.065624 124.62813Q40.565624 123.925 40.565624 121.81563Q40.565624 119.69063 40.065624 119.00313Q39.58125 118.3 38.83125 118.3Q38.1125 118.3 37.675 118.90938Q37.128124 119.69063 37.128124 121.81563Z" fill-rule="nonzero"/><path fill="#000000" d="M19.05 51.682293Q19.05 50.151043 19.3625 49.229168Q19.675 48.291668 20.284374 47.791668Q20.909374 47.291668 21.846874 47.291668Q22.534374 47.291668 23.05 47.572918Q23.58125 47.854168 23.925 48.385418Q24.26875 48.901043 24.45625 49.651043Q24.64375 50.401043 24.64375 51.682293Q24.64375 53.197918 24.33125 54.119793Q24.034374 55.041668 23.409374 55.557293Q22.8 56.057293 21.846874 56.057293Q20.6125 56.057293 19.89375 55.166668Q19.05 54.104168 19.05 51.682293ZM20.128124 51.682293Q20.128124 53.791668 20.628124 54.494793Q21.128124 55.197918 21.846874 55.197918Q22.58125 55.197918 23.065624 54.494793Q23.565624 53.791668 23.565624 51.682293Q23.565624 49.557293 23.065624 48.869793Q22.58125 48.166668 21.83125 48.166668Q21.1125 48.166668 20.675 48.776043Q20.128124 49.557293 20.128124 51.682293ZM26.64375 55.916668L26.64375 54.713543L27.846874 54.713543L27.846874 55.916668L26.64375 55.916668ZM32.425 55.916668L32.425 53.854168L28.70625 53.854168L28.70625 52.885418L32.628124 47.322918L33.4875 47.322918L33.4875 52.885418L34.64375 52.885418L34.64375 53.854168L33.4875 53.854168L33.4875 55.916668L32.425 55.916668ZM32.425 52.885418L32.425 49.026043L29.7375 52.885418L32.425 52.885418ZM36.05 51.682293Q36.05 50.151043 36.3625 49.229168Q36.675 48.291668 37.284374 47.791668Q37.909374 47.291668 38.846874 47.291668Q39.534374 47.291668 40.05 47.572918Q40.58125 47.854168 40.925 48.385418Q41.26875 48.901043 41.45625 49.651043Q41.64375 50.401043 41.64375 51.682293Q41.64375 53.197918 41.33125 54.119793Q41.034374 55.041668 40.409374 55.557293Q39.8 56.057293 38.846874 56.057293Q37.6125 56.057293 36.89375 55.166668Q36.05 54.104168 36.05 51.682293ZM37.128124 51.682293Q37.128124 53.791668 37.628124 54.494793Q38.128124 55.197918 38.846874 55.197918Q39.58125 55.197918 40.065624 54.494793Q40.565624 53.791668 40.565624 51.682293Q40.565624 49.557293 40.065624 48.869793Q39.58125 48.166668 38.83125 48.166668Q38.1125 48.166668 37.675 48.776043Q37.128124 49.557293 37.128124 51.682293Z" fill-rule="nonzero"/><path fill="#000000" d="M76.58748 349.45L76.58748 340.85626L78.30623 340.85626L80.33748 346.9344Q80.61873 347.79376 80.74373 348.21564Q80.88435 347.7469 81.19685 346.84064L83.25935 340.85626L84.7906 340.85626L84.7906 349.45L83.69685 349.45L83.69685 342.2625L81.19685 349.45L80.1656 349.45L77.68123 342.1375L77.68123 349.45L76.58748 349.45ZM89.57185 349.45L89.57185 348.52814Q88.83748 349.59064 87.58748 349.59064Q87.0406 349.59064 86.55623 349.3875Q86.08748 349.16876 85.8531 348.85626Q85.61873 348.52814 85.52498 348.0594Q85.46248 347.7625 85.46248 347.075L85.46248 343.23126L86.52498 343.23126L86.52498 346.6844Q86.52498 347.4969 86.58748 347.79376Q86.68123 348.2 86.99373 348.45Q87.32185 348.6844 87.80623 348.6844Q88.27498 348.6844 88.68123 348.45Q89.1031 348.2 89.27498 347.77814Q89.46248 347.35626 89.46248 346.5594L89.46248 343.23126L90.50935 343.23126L90.50935 349.45L89.57185 349.45ZM92.46248 349.45L92.46248 340.85626L93.52498 340.85626L93.52498 349.45L92.46248 349.45ZM97.7906 348.5125L97.94685 349.4344Q97.49373 349.52814 97.14998 349.52814Q96.57185 349.52814 96.25935 349.35626Q95.94685 349.16876 95.80623 348.8719Q95.68123 348.575 95.68123 347.6219L95.68123 344.04376L94.9156 344.04376L94.9156 343.23126L95.68123 343.23126L95.68123 341.6844L96.7281 341.0594L96.7281 343.23126L97.7906 343.23126L97.7906 344.04376L96.7281 344.04376L96.7281 347.6844Q96.7281 348.1375 96.77498 348.2625Q96.83748 348.3875 96.96248 348.46564Q97.08748 348.54376 97.32185 348.54376Q97.50935 348.54376 97.7906 348.5125ZM98.49373 342.075L98.49373 340.85626L99.55623 340.85626L99.55623 342.075L98.49373 342.075ZM98.49373 349.45L98.49373 343.23126L99.55623 343.23126L99.55623 349.45L98.49373 349.45ZM101.49373 351.84064L101.49373 343.23126L102.44685 343.23126L102.44685 344.02814Q102.7906 343.5594 103.21248 343.325Q103.64998 343.09064 104.25935 343.09064Q105.05623 343.09064 105.6656 343.4969Q106.27498 343.90314 106.57185 344.65314Q106.88435 345.40314 106.88435 346.29376Q106.88435 347.2469 106.5406 348.0125Q106.21248 348.77814 105.55623 349.1844Q104.89998 349.59064 104.18123 349.59064Q103.64998 349.59064 103.2281 349.3719Q102.80623 349.1375 102.5406 348.8094L102.5406 351.84064L101.49373 351.84064ZM102.44685 346.3719Q102.44685 347.575 102.93123 348.15314Q103.4156 348.71564 104.1031 348.71564Q104.80623 348.71564 105.30623 348.1219Q105.80623 347.52814 105.80623 346.27814Q105.80623 345.09064 105.32185 344.5125Q104.83748 343.91876 104.14998 343.91876Q103.4781 343.91876 102.96248 344.54376Q102.44685 345.16876 102.44685 346.3719ZM108.46248 349.45L108.46248 340.85626L109.52498 340.85626L109.52498 349.45L108.46248 349.45ZM115.74373 347.45L116.83748 347.575Q116.58748 348.52814 115.88435 349.0594Q115.18123 349.59064 114.1031 349.59064Q112.74373 349.59064 111.93123 348.7469Q111.13435 347.90314 111.13435 346.3875Q111.13435 344.825 111.94685 343.96564Q112.75935 343.09064 114.0406 343.09064Q115.2906 343.09064 116.07185 343.9344Q116.86873 344.77814 116.86873 346.325Q116.86873 346.41876 116.86873 346.60626L112.2281 346.60626Q112.2906 347.6375 112.80623 348.1844Q113.32185 348.71564 114.1031 348.71564Q114.68123 348.71564 115.08748 348.41876Q115.50935 348.10626 115.74373 347.45ZM112.2906 345.7469L115.75935 345.7469Q115.69685 344.95 115.36873 344.5594Q114.8531 343.95 114.05623 343.95Q113.32185 343.95 112.82185 344.4344Q112.33748 344.91876 112.2906 345.7469ZM118.07185 346.8719L118.07185 345.8094L121.32185 345.8094L121.32185 346.8719L118.07185 346.8719ZM122.61873 349.45L122.61873 340.85626L125.86873 340.85626Q126.71248 340.85626 127.1656 340.9344Q127.80623 341.04376 128.2281 341.34064Q128.6656 341.6375 128.9156 342.16876Q129.18123 342.7 129.18123 343.34064Q129.18123 344.4344 128.4781 345.2Q127.7906 345.95 125.96248 345.95L123.75935 345.95L123.75935 349.45L122.61873 349.45ZM123.75935 344.95L125.9781 344.95Q127.08748 344.95 127.5406 344.54376Q128.00935 344.1219 128.00935 343.3719Q128.00935 342.84064 127.7281 342.46564Q127.46248 342.075 127.02498 341.95Q126.7281 341.8719 125.96248 341.8719L123.75935 341.8719L123.75935 344.95ZM130.44685 351.84064L130.32185 350.85626Q130.6656 350.95 130.93123 350.95Q131.27498 350.95 131.4781 350.825Q131.69685 350.71564 131.83748 350.5125Q131.93123 350.34064 132.1656 349.71564Q132.18123 349.6375 132.25935 349.46564L129.88435 343.23126L131.02498 343.23126L132.32185 346.825Q132.57185 347.5125 132.77498 348.27814Q132.96248 347.54376 133.21248 346.85626L134.5406 343.23126L135.58748 343.23126L133.2281 349.5594Q132.83748 350.575 132.63435 350.96564Q132.3531 351.4969 131.9781 351.73126Q131.61873 351.98126 131.11873 351.98126Q130.82185 351.98126 130.44685 351.84064Z" fill-rule="nonzero"/><path fill="#000000" d="M154.50873 349.45L154.50873 340.85626L156.22748 340.85626L158.25873 346.9344Q158.53998 347.79376 158.66498 348.21564Q158.8056 347.7469 159.1181 346.84064L161.1806 340.85626L162.71185 340.85626L162.71185 349.45L161.6181 349.45L161.6181 342.2625L159.1181 349.45L158.08685 349.45L155.60248 342.1375L155.60248 349.45L154.50873 349.45ZM167.4931 349.45L167.4931 348.52814Q166.75873 349.59064 165.50873 349.59064Q164.96185 349.59064 164.47748 349.3875Q164.00873 349.16876 163.77435 348.85626Q163.53998 348.52814 163.44623 348.0594Q163.38373 347.7625 163.38373 347.075L163.38373 343.23126L164.44623 343.23126L164.44623 346.6844Q164.44623 347.4969 164.50873 347.79376Q164.60248 348.2 164.91498 348.45Q165.2431 348.6844 165.72748 348.6844Q166.19623 348.6844 166.60248 348.45Q167.02435 348.2 167.19623 347.77814Q167.38373 347.35626 167.38373 346.5594L167.38373 343.23126L168.4306 343.23126L168.4306 349.45L167.4931 349.45ZM170.38373 349.45L170.38373 340.85626L171.44623 340.85626L171.44623 349.45L170.38373 349.45ZM175.71185 348.5125L175.8681 349.4344Q175.41498 349.52814 175.07123 349.52814Q174.4931 349.52814 174.1806 349.35626Q173.8681 349.16876 173.72748 348.8719Q173.60248 348.575 173.60248 347.6219L173.60248 344.04376L172.83685 344.04376L172.83685 343.23126L173.60248 343.23126L173.60248 341.6844L174.64935 341.0594L174.64935 343.23126L175.71185 343.23126L175.71185 344.04376L174.64935 344.04376L174.64935 347.6844Q174.64935 348.1375 174.69623 348.2625Q174.75873 348.3875 174.88373 348.46564Q175.00873 348.54376 175.2431 348.54376Q175.4306 348.54376 175.71185 348.5125ZM176.41498 342.075L176.41498 340.85626L177.47748 340.85626L177.47748 342.075L176.41498 342.075ZM176.41498 349.45L176.41498 343.23126L177.47748 343.23126L177.47748 349.45L176.41498 349.45ZM179.41498 351.84064L179.41498 343.23126L180.3681 343.23126L180.3681 344.02814Q180.71185 343.5594 181.13373 343.325Q181.57123 343.09064 182.1806 343.09064Q182.97748 343.09064 183.58685 343.4969Q184.19623 343.90314 184.4931 344.65314Q184.8056 345.40314 184.8056 346.29376Q184.8056 347.2469 184.46185 348.0125Q184.13373 348.77814 183.47748 349.1844Q182.82123 349.59064 182.10248 349.59064Q181.57123 349.59064 181.14935 349.3719Q180.72748 349.1375 180.46185 348.8094L180.46185 351.84064L179.41498 351.84064ZM180.3681 346.3719Q180.3681 347.575 180.85248 348.15314Q181.33685 348.71564 182.02435 348.71564Q182.72748 348.71564 183.22748 348.1219Q183.72748 347.52814 183.72748 346.27814Q183.72748 345.09064 183.2431 344.5125Q182.75873 343.91876 182.07123 343.91876Q181.39935 343.91876 180.88373 344.54376Q180.3681 345.16876 180.3681 346.3719ZM186.38373 349.45L186.38373 340.85626L187.44623 340.85626L187.44623 349.45L186.38373 349.45ZM193.66498 347.45L194.75873 347.575Q194.50873 348.52814 193.8056 349.0594Q193.10248 349.59064 192.02435 349.59064Q190.66498 349.59064 189.85248 348.7469Q189.0556 347.90314 189.0556 346.3875Q189.0556 344.825 189.8681 343.96564Q190.6806 343.09064 191.96185 343.09064Q193.21185 343.09064 193.9931 343.9344Q194.78998 344.77814 194.78998 346.325Q194.78998 346.41876 194.78998 346.60626L190.14935 346.60626Q190.21185 347.6375 190.72748 348.1844Q191.2431 348.71564 192.02435 348.71564Q192.60248 348.71564 193.00873 348.41876Q193.4306 348.10626 193.66498 347.45ZM190.21185 345.7469L193.6806 345.7469Q193.6181 344.95 193.28998 344.5594Q192.77435 343.95 191.97748 343.95Q191.2431 343.95 190.7431 344.4344Q190.25873 344.91876 190.21185 345.7469ZM195.9931 346.8719L195.9931 345.8094L199.2431 345.8094L199.2431 346.8719L195.9931 346.8719ZM206.6806 346.4344L207.8056 346.73126Q207.44623 348.1219 206.52435 348.85626Q205.60248 349.59064 204.25873 349.59064Q202.8681 349.59064 201.9931 349.02814Q201.1181 348.46564 200.66498 347.40314Q200.21185 346.325 200.21185 345.09064Q200.21185 343.7469 200.72748 342.7469Q201.2431 341.7469 202.1806 341.23126Q203.13373 340.71564 204.27435 340.71564Q205.5556 340.71564 206.4306 341.3719Q207.32123 342.02814 207.66498 343.21564L206.53998 343.48126Q206.2431 342.54376 205.66498 342.1219Q205.10248 341.6844 204.2431 341.6844Q203.25873 341.6844 202.58685 342.16876Q201.9306 342.6375 201.64935 343.4344Q201.38373 344.23126 201.38373 345.09064Q201.38373 346.1844 201.69623 346.9969Q202.02435 347.8094 202.69623 348.21564Q203.3681 348.6219 204.16498 348.6219Q205.1181 348.6219 205.77435 348.075Q206.44623 347.52814 206.6806 346.4344ZM209.53998 349.45L209.53998 340.85626L212.78998 340.85626Q213.63373 340.85626 214.08685 340.9344Q214.72748 341.04376 215.14935 341.34064Q215.58685 341.6375 215.83685 342.16876Q216.10248 342.7 216.10248 343.34064Q216.10248 344.4344 215.39935 345.2Q214.71185 345.95 212.88373 345.95L210.6806 345.95L210.6806 349.45L209.53998 349.45ZM210.6806 344.95L212.89935 344.95Q214.00873 344.95 214.46185 344.54376Q214.9306 344.1219 214.9306 343.3719Q214.9306 342.84064 214.64935 342.46564Q214.38373 342.075 213.94623 341.95Q213.64935 341.8719 212.88373 341.8719L210.6806 341.8719L210.6806 344.95ZM217.53998 349.45L217.53998 340.85626L220.78998 340.85626Q221.63373 340.85626 222.08685 340.9344Q222.72748 341.04376 223.14935 341.34064Q223.58685 341.6375 223.83685 342.16876Q224.10248 342.7 224.10248 343.34064Q224.10248 344.4344 223.39935 345.2Q222.71185 345.95 220.88373 345.95L218.6806 345.95L218.6806 349.45L217.53998 349.45ZM218.6806 344.95L220.89935 344.95Q222.00873 344.95 222.46185 344.54376Q222.9306 344.1219 222.9306 343.3719Q222.9306 342.84064 222.64935 342.46564Q222.38373 342.075 221.94623 341.95Q221.64935 341.8719 220.88373 341.8719L218.6806 341.8719L218.6806 344.95Z" fill-rule="nonzero"/><path fill="#000000" d="M244.43 349.45L244.43 340.85626L246.14874 340.85626L248.18 346.9344Q248.46124 347.79376 248.58624 348.21564Q248.72687 347.7469 249.03937 346.84064L251.10187 340.85626L252.63312 340.85626L252.63312 349.45L251.53937 349.45L251.53937 342.2625L249.03937 349.45L248.00812 349.45L245.52374 342.1375L245.52374 349.45L244.43 349.45ZM257.41437 349.45L257.41437 348.52814Q256.68 349.59064 255.43 349.59064Q254.88312 349.59064 254.39874 349.3875Q253.93 349.16876 253.69562 348.85626Q253.46124 348.52814 253.3675 348.0594Q253.305 347.7625 253.305 347.075L253.305 343.23126L254.3675 343.23126L254.3675 346.6844Q254.3675 347.4969 254.43 347.79376Q254.52374 348.2 254.83624 348.45Q255.16437 348.6844 255.64874 348.6844Q256.1175 348.6844 256.52374 348.45Q256.94562 348.2 257.1175 347.77814Q257.305 347.35626 257.305 346.5594L257.305 343.23126L258.35187 343.23126L258.35187 349.45L257.41437 349.45ZM260.305 349.45L260.305 340.85626L261.3675 340.85626L261.3675 349.45L260.305 349.45ZM265.63312 348.5125L265.78937 349.4344Q265.33624 349.52814 264.9925 349.52814Q264.41437 349.52814 264.10187 349.35626Q263.78937 349.16876 263.64874 348.8719Q263.52374 348.575 263.52374 347.6219L263.52374 344.04376L262.75812 344.04376L262.75812 343.23126L263.52374 343.23126L263.52374 341.6844L264.57062 341.0594L264.57062 343.23126L265.63312 343.23126L265.63312 344.04376L264.57062 344.04376L264.57062 347.6844Q264.57062 348.1375 264.6175 348.2625Q264.68 348.3875 264.805 348.46564Q264.93 348.54376 265.16437 348.54376Q265.35187 348.54376 265.63312 348.5125ZM266.33624 342.075L266.33624 340.85626L267.39874 340.85626L267.39874 342.075L266.33624 342.075ZM266.33624 349.45L266.33624 343.23126L267.39874 343.23126L267.39874 349.45L266.33624 349.45ZM269.33624 351.84064L269.33624 343.23126L270.28937 343.23126L270.28937 344.02814Q270.63312 343.5594 271.055 343.325Q271.4925 343.09064 272.10187 343.09064Q272.89874 343.09064 273.50812 343.4969Q274.1175 343.90314 274.41437 344.65314Q274.72687 345.40314 274.72687 346.29376Q274.72687 347.2469 274.38312 348.0125Q274.055 348.77814 273.39874 349.1844Q272.7425 349.59064 272.02374 349.59064Q271.4925 349.59064 271.07062 349.3719Q270.64874 349.1375 270.38312 348.8094L270.38312 351.84064L269.33624 351.84064ZM270.28937 346.3719Q270.28937 347.575 270.77374 348.15314Q271.25812 348.71564 271.94562 348.71564Q272.64874 348.71564 273.14874 348.1219Q273.64874 347.52814 273.64874 346.27814Q273.64874 345.09064 273.16437 344.5125Q272.68 343.91876 271.9925 343.91876Q271.32062 343.91876 270.805 344.54376Q270.28937 345.16876 270.28937 346.3719ZM276.305 349.45L276.305 340.85626L277.3675 340.85626L277.3675 349.45L276.305 349.45ZM283.58624 347.45L284.68 347.575Q284.43 348.52814 283.72687 349.0594Q283.02374 349.59064 281.94562 349.59064Q280.58624 349.59064 279.77374 348.7469Q278.97687 347.90314 278.97687 346.3875Q278.97687 344.825 279.78937 343.96564Q280.60187 343.09064 281.88312 343.09064Q283.13312 343.09064 283.91437 343.9344Q284.71124 344.77814 284.71124 346.325Q284.71124 346.41876 284.71124 346.60626L280.07062 346.60626Q280.13312 347.6375 280.64874 348.1844Q281.16437 348.71564 281.94562 348.71564Q282.52374 348.71564 282.93 348.41876Q283.35187 348.10626 283.58624 347.45ZM280.13312 345.7469L283.60187 345.7469Q283.53937 344.95 283.21124 344.5594Q282.69562 343.95 281.89874 343.95Q281.16437 343.95 280.66437 344.4344Q280.18 344.91876 280.13312 345.7469ZM285.91437 346.8719L285.91437 345.8094L289.16437 345.8094L289.16437 346.8719L285.91437 346.8719ZM289.88312 347.0125L290.91437 346.8719Q290.94562 347.85626 291.27374 348.21564Q291.60187 348.575 292.19562 348.575Q292.6175 348.575 292.93 348.3875Q293.2425 348.1844 293.35187 347.85626Q293.47687 347.5125 293.47687 346.77814L293.47687 340.85626L294.60187 340.85626L294.60187 346.71564Q294.60187 347.79376 294.33624 348.3875Q294.08624 348.98126 293.52374 349.29376Q292.96124 349.59064 292.19562 349.59064Q291.07062 349.59064 290.46124 348.95Q289.8675 348.29376 289.88312 347.0125ZM295.91437 347.59064L296.94562 347.4344Q297.03937 348.0594 297.43 348.3875Q297.83624 348.71564 298.57062 348.71564Q299.28937 348.71564 299.63312 348.4344Q299.9925 348.1375 299.9925 347.73126Q299.9925 347.3719 299.68 347.16876Q299.46124 347.02814 298.60187 346.8094Q297.44562 346.5125 296.9925 346.3094Q296.555 346.09064 296.32062 345.71564Q296.08624 345.34064 296.08624 344.8719Q296.08624 344.46564 296.27374 344.10626Q296.46124 343.7469 296.78937 343.5125Q297.03937 343.34064 297.46124 343.21564Q297.88312 343.09064 298.38312 343.09064Q299.10187 343.09064 299.64874 343.3094Q300.21124 343.5125 300.47687 343.8719Q300.7425 344.23126 300.83624 344.825L299.805 344.96564Q299.7425 344.4969 299.39874 344.23126Q299.07062 343.95 298.44562 343.95Q297.72687 343.95 297.41437 344.2Q297.10187 344.4344 297.10187 344.7625Q297.10187 344.96564 297.22687 345.1219Q297.3675 345.29376 297.63312 345.40314Q297.78937 345.46564 298.57062 345.66876Q299.69562 345.98126 300.13312 346.16876Q300.57062 346.35626 300.82062 346.71564Q301.07062 347.075 301.07062 347.6219Q301.07062 348.15314 300.75812 348.6219Q300.46124 349.075 299.88312 349.34064Q299.305 349.59064 298.57062 349.59064Q297.35187 349.59064 296.71124 349.09064Q296.08624 348.575 295.91437 347.59064Z" fill-rule="nonzero"/><path fill="#000000" d="M322.35126 349.45L322.35126 340.85626L324.07 340.85626L326.10126 346.9344Q326.3825 347.79376 326.5075 348.21564Q326.64813 347.7469 326.96063 346.84064L329.02313 340.85626L330.55438 340.85626L330.55438 349.45L329.46063 349.45L329.46063 342.2625L326.96063 349.45L325.92938 349.45L323.445 342.1375L323.445 349.45L322.35126 349.45ZM335.33563 349.45L335.33563 348.52814Q334.60126 349.59064 333.35126 349.59064Q332.80438 349.59064 332.32 349.3875Q331.85126 349.16876 331.61688 348.85626Q331.3825 348.52814 331.28876 348.0594Q331.22626 347.7625 331.22626 347.075L331.22626 343.23126L332.28876 343.23126L332.28876 346.6844Q332.28876 347.4969 332.35126 347.79376Q332.445 348.2 332.7575 348.45Q333.08563 348.6844 333.57 348.6844Q334.03876 348.6844 334.445 348.45Q334.86688 348.2 335.03876 347.77814Q335.22626 347.35626 335.22626 346.5594L335.22626 343.23126L336.27313 343.23126L336.27313 349.45L335.33563 349.45ZM338.22626 349.45L338.22626 340.85626L339.28876 340.85626L339.28876 349.45L338.22626 349.45ZM343.55438 348.5125L343.71063 349.4344Q343.2575 349.52814 342.91376 349.52814Q342.33563 349.52814 342.02313 349.35626Q341.71063 349.16876 341.57 348.8719Q341.445 348.575 341.445 347.6219L341.445 344.04376L340.67938 344.04376L340.67938 343.23126L341.445 343.23126L341.445 341.6844L342.49188 341.0594L342.49188 343.23126L343.55438 343.23126L343.55438 344.04376L342.49188 344.04376L342.49188 347.6844Q342.49188 348.1375 342.53876 348.2625Q342.60126 348.3875 342.72626 348.46564Q342.85126 348.54376 343.08563 348.54376Q343.27313 348.54376 343.55438 348.5125ZM344.2575 342.075L344.2575 340.85626L345.32 340.85626L345.32 342.075L344.2575 342.075ZM344.2575 349.45L344.2575 343.23126L345.32 343.23126L345.32 349.45L344.2575 349.45ZM347.2575 351.84064L347.2575 343.23126L348.21063 343.23126L348.21063 344.02814Q348.55438 343.5594 348.97626 343.325Q349.41376 343.09064 350.02313 343.09064Q350.82 343.09064 351.42938 343.4969Q352.03876 343.90314 352.33563 344.65314Q352.64813 345.40314 352.64813 346.29376Q352.64813 347.2469 352.30438 348.0125Q351.97626 348.77814 351.32 349.1844Q350.66376 349.59064 349.945 349.59064Q349.41376 349.59064 348.99188 349.3719Q348.57 349.1375 348.30438 348.8094L348.30438 351.84064L347.2575 351.84064ZM348.21063 346.3719Q348.21063 347.575 348.695 348.15314Q349.17938 348.71564 349.86688 348.71564Q350.57 348.71564 351.07 348.1219Q351.57 347.52814 351.57 346.27814Q351.57 345.09064 351.08563 344.5125Q350.60126 343.91876 349.91376 343.91876Q349.24188 343.91876 348.72626 344.54376Q348.21063 345.16876 348.21063 346.3719ZM354.22626 349.45L354.22626 340.85626L355.28876 340.85626L355.28876 349.45L354.22626 349.45ZM361.5075 347.45L362.60126 347.575Q362.35126 348.52814 361.64813 349.0594Q360.945 349.59064 359.86688 349.59064Q358.5075 349.59064 357.695 348.7469Q356.89813 347.90314 356.89813 346.3875Q356.89813 344.825 357.71063 343.96564Q358.52313 343.09064 359.80438 343.09064Q361.05438 343.09064 361.83563 343.9344Q362.6325 344.77814 362.6325 346.325Q362.6325 346.41876 362.6325 346.60626L357.99188 346.60626Q358.05438 347.6375 358.57 348.1844Q359.08563 348.71564 359.86688 348.71564Q360.445 348.71564 360.85126 348.41876Q361.27313 348.10626 361.5075 347.45ZM358.05438 345.7469L361.52313 345.7469Q361.46063 344.95 361.1325 344.5594Q360.61688 343.95 359.82 343.95Q359.08563 343.95 358.58563 344.4344Q358.10126 344.91876 358.05438 345.7469ZM363.83563 346.8719L363.83563 345.8094L367.08563 345.8094L367.08563 346.8719L363.83563 346.8719ZM367.80438 347.0125L368.83563 346.8719Q368.86688 347.85626 369.195 348.21564Q369.52313 348.575 370.11688 348.575Q370.53876 348.575 370.85126 348.3875Q371.16376 348.1844 371.27313 347.85626Q371.39813 347.5125 371.39813 346.77814L371.39813 340.85626L372.52313 340.85626L372.52313 346.71564Q372.52313 347.79376 372.2575 348.3875Q372.0075 348.98126 371.445 349.29376Q370.8825 349.59064 370.11688 349.59064Q368.99188 349.59064 368.3825 348.95Q367.78876 348.29376 367.80438 347.0125ZM378.32 348.6844Q377.72626 349.1844 377.17938 349.3875Q376.64813 349.59064 376.02313 349.59064Q374.99188 349.59064 374.445 349.09064Q373.89813 348.59064 373.89813 347.8094Q373.89813 347.35626 374.10126 346.98126Q374.30438 346.59064 374.64813 346.3719Q374.99188 346.1375 375.41376 346.02814Q375.71063 345.9344 376.35126 345.85626Q377.61688 345.71564 378.22626 345.4969Q378.22626 345.27814 378.22626 345.23126Q378.22626 344.575 377.92938 344.3094Q377.52313 343.96564 376.72626 343.96564Q375.99188 343.96564 375.6325 344.23126Q375.27313 344.48126 375.10126 345.1375L374.07 344.9969Q374.21063 344.34064 374.53876 343.9344Q374.86688 343.52814 375.47626 343.3094Q376.08563 343.09064 376.8825 343.09064Q377.67938 343.09064 378.17938 343.27814Q378.67938 343.46564 378.91376 343.7469Q379.14813 344.02814 379.24188 344.46564Q379.28876 344.73126 379.28876 345.4344L379.28876 346.84064Q379.28876 348.3094 379.35126 348.7Q379.42938 349.09064 379.6325 349.45L378.52313 349.45Q378.36688 349.1219 378.32 348.6844ZM378.22626 346.325Q377.64813 346.5594 376.5075 346.73126Q375.85126 346.825 375.58563 346.95Q375.32 347.0594 375.16376 347.27814Q375.02313 347.4969 375.02313 347.77814Q375.02313 348.2 375.33563 348.48126Q375.66376 348.7625 376.27313 348.7625Q376.8825 348.7625 377.35126 348.4969Q377.83563 348.23126 378.05438 347.7625Q378.22626 347.40314 378.22626 346.71564L378.22626 346.325ZM382.97626 349.45L380.61688 343.23126L381.72626 343.23126L383.07 346.95Q383.27313 347.5594 383.46063 348.2Q383.60126 347.71564 383.85126 347.02814L385.24188 343.23126L386.32 343.23126L383.96063 349.45L382.97626 349.45ZM390.32 348.6844Q389.72626 349.1844 389.17938 349.3875Q388.64813 349.59064 388.02313 349.59064Q386.99188 349.59064 386.445 349.09064Q385.89813 348.59064 385.89813 347.8094Q385.89813 347.35626 386.10126 346.98126Q386.30438 346.59064 386.64813 346.3719Q386.99188 346.1375 387.41376 346.02814Q387.71063 345.9344 388.35126 345.85626Q389.61688 345.71564 390.22626 345.4969Q390.22626 345.27814 390.22626 345.23126Q390.22626 344.575 389.92938 344.3094Q389.52313 343.96564 388.72626 343.96564Q387.99188 343.96564 387.6325 344.23126Q387.27313 344.48126 387.10126 345.1375L386.07 344.9969Q386.21063 344.34064 386.53876 343.9344Q386.86688 343.52814 387.47626 343.3094Q388.08563 343.09064 388.8825 343.09064Q389.67938 343.09064 390.17938 343.27814Q390.67938 343.46564 390.91376 343.7469Q391.14813 344.02814 391.24188 344.46564Q391.28876 344.73126 391.28876 345.4344L391.28876 346.84064Q391.28876 348.3094 391.35126 348.7Q391.42938 349.09064 391.6325 349.45L390.52313 349.45Q390.36688 349.1219 390.32 348.6844ZM390.22626 346.325Q389.64813 346.5594 388.5075 346.73126Q387.85126 346.825 387.58563 346.95Q387.32 347.0594 387.16376 347.27814Q387.02313 347.4969 387.02313 347.77814Q387.02313 348.2 387.33563 348.48126Q387.66376 348.7625 388.27313 348.7625Q388.8825 348.7625 389.35126 348.4969Q389.83563 348.23126 390.05438 347.7625Q390.22626 347.40314 390.22626 346.71564L390.22626 346.325Z" fill-rule="nonzero"/><path fill="#000000" d="M407.77252 349.45L407.77252 340.85626L409.49127 340.85626L411.52252 346.9344Q411.80377 347.79376 411.92877 348.21564Q412.0694 347.7469 412.3819 346.84064L414.4444 340.85626L415.97565 340.85626L415.97565 349.45L414.8819 349.45L414.8819 342.2625L412.3819 349.45L411.35065 349.45L408.86627 342.1375L408.86627 349.45L407.77252 349.45ZM420.7569 349.45L420.7569 348.52814Q420.02252 349.59064 418.77252 349.59064Q418.22565 349.59064 417.74127 349.3875Q417.27252 349.16876 417.03815 348.85626Q416.80377 348.52814 416.71002 348.0594Q416.64752 347.7625 416.64752 347.075L416.64752 343.23126L417.71002 343.23126L417.71002 346.6844Q417.71002 347.4969 417.77252 347.79376Q417.86627 348.2 418.17877 348.45Q418.5069 348.6844 418.99127 348.6844Q419.46002 348.6844 419.86627 348.45Q420.28815 348.2 420.46002 347.77814Q420.64752 347.35626 420.64752 346.5594L420.64752 343.23126L421.6944 343.23126L421.6944 349.45L420.7569 349.45ZM423.64752 349.45L423.64752 340.85626L424.71002 340.85626L424.71002 349.45L423.64752 349.45ZM428.97565 348.5125L429.1319 349.4344Q428.67877 349.52814 428.33502 349.52814Q427.7569 349.52814 427.4444 349.35626Q427.1319 349.16876 426.99127 348.8719Q426.86627 348.575 426.86627 347.6219L426.86627 344.04376L426.10065 344.04376L426.10065 343.23126L426.86627 343.23126L426.86627 341.6844L427.91315 341.0594L427.91315 343.23126L428.97565 343.23126L428.97565 344.04376L427.91315 344.04376L427.91315 347.6844Q427.91315 348.1375 427.96002 348.2625Q428.02252 348.3875 428.14752 348.46564Q428.27252 348.54376 428.5069 348.54376Q428.6944 348.54376 428.97565 348.5125ZM429.67877 342.075L429.67877 340.85626L430.74127 340.85626L430.74127 342.075L429.67877 342.075ZM429.67877 349.45L429.67877 343.23126L430.74127 343.23126L430.74127 349.45L429.67877 349.45ZM432.67877 351.84064L432.67877 343.23126L433.6319 343.23126L433.6319 344.02814Q433.97565 343.5594 434.39752 343.325Q434.83502 343.09064 435.4444 343.09064Q436.24127 343.09064 436.85065 343.4969Q437.46002 343.90314 437.7569 344.65314Q438.0694 345.40314 438.0694 346.29376Q438.0694 347.2469 437.72565 348.0125Q437.39752 348.77814 436.74127 349.1844Q436.08502 349.59064 435.36627 349.59064Q434.83502 349.59064 434.41315 349.3719Q433.99127 349.1375 433.72565 348.8094L433.72565 351.84064L432.67877 351.84064ZM433.6319 346.3719Q433.6319 347.575 434.11627 348.15314Q434.60065 348.71564 435.28815 348.71564Q435.99127 348.71564 436.49127 348.1219Q436.99127 347.52814 436.99127 346.27814Q436.99127 345.09064 436.5069 344.5125Q436.02252 343.91876 435.33502 343.91876Q434.66315 343.91876 434.14752 344.54376Q433.6319 345.16876 433.6319 346.3719ZM439.64752 349.45L439.64752 340.85626L440.71002 340.85626L440.71002 349.45L439.64752 349.45ZM446.92877 347.45L448.02252 347.575Q447.77252 348.52814 447.0694 349.0594Q446.36627 349.59064 445.28815 349.59064Q443.92877 349.59064 443.11627 348.7469Q442.3194 347.90314 442.3194 346.3875Q442.3194 344.825 443.1319 343.96564Q443.9444 343.09064 445.22565 343.09064Q446.47565 343.09064 447.2569 343.9344Q448.05377 344.77814 448.05377 346.325Q448.05377 346.41876 448.05377 346.60626L443.41315 346.60626Q443.47565 347.6375 443.99127 348.1844Q444.5069 348.71564 445.28815 348.71564Q445.86627 348.71564 446.27252 348.41876Q446.6944 348.10626 446.92877 347.45ZM443.47565 345.7469L446.9444 345.7469Q446.8819 344.95 446.55377 344.5594Q446.03815 343.95 445.24127 343.95Q444.5069 343.95 444.0069 344.4344Q443.52252 344.91876 443.47565 345.7469ZM449.2569 346.8719L449.2569 345.8094L452.5069 345.8094L452.5069 346.8719L449.2569 346.8719ZM453.80377 349.45L453.80377 340.85626L457.05377 340.85626Q457.89752 340.85626 458.35065 340.9344Q458.99127 341.04376 459.41315 341.34064Q459.85065 341.6375 460.10065 342.16876Q460.36627 342.7 460.36627 343.34064Q460.36627 344.4344 459.66315 345.2Q458.97565 345.95 457.14752 345.95L454.9444 345.95L454.9444 349.45L453.80377 349.45ZM454.9444 344.95L457.16315 344.95Q458.27252 344.95 458.72565 344.54376Q459.1944 344.1219 459.1944 343.3719Q459.1944 342.84064 458.91315 342.46564Q458.64752 342.075 458.21002 341.95Q457.91315 341.8719 457.14752 341.8719L454.9444 341.8719L454.9444 344.95ZM461.67877 349.45L461.67877 340.85626L462.72565 340.85626L462.72565 343.9344Q463.46002 343.09064 464.58502 343.09064Q465.28815 343.09064 465.78815 343.3719Q466.30377 343.6375 466.52252 344.1219Q466.74127 344.59064 466.74127 345.5125L466.74127 349.45L465.6944 349.45L465.6944 345.5125Q465.6944 344.71564 465.35065 344.35626Q465.0069 343.9969 464.3819 343.9969Q463.91315 343.9969 463.49127 344.2469Q463.08502 344.48126 462.89752 344.90314Q462.72565 345.3094 462.72565 346.04376L462.72565 349.45L461.67877 349.45ZM468.67877 351.84064L468.67877 343.23126L469.6319 343.23126L469.6319 344.02814Q469.97565 343.5594 470.39752 343.325Q470.83502 343.09064 471.4444 343.09064Q472.24127 343.09064 472.85065 343.4969Q473.46002 343.90314 473.7569 344.65314Q474.0694 345.40314 474.0694 346.29376Q474.0694 347.2469 473.72565 348.0125Q473.39752 348.77814 472.74127 349.1844Q472.08502 349.59064 471.36627 349.59064Q470.83502 349.59064 470.41315 349.3719Q469.99127 349.1375 469.72565 348.8094L469.72565 351.84064L468.67877 351.84064ZM469.6319 346.3719Q469.6319 347.575 470.11627 348.15314Q470.60065 348.71564 471.28815 348.71564Q471.99127 348.71564 472.49127 348.1219Q472.99127 347.52814 472.99127 346.27814Q472.99127 345.09064 472.5069 344.5125Q472.02252 343.91876 471.33502 343.91876Q470.66315 343.91876 470.14752 344.54376Q469.6319 345.16876 469.6319 346.3719Z" fill-rule="nonzero"/><path fill="#000000" d="M489.6938 349.45L489.6938 340.85626L491.41254 340.85626L493.4438 346.9344Q493.72504 347.79376 493.85004 348.21564Q493.99066 347.7469 494.30316 346.84064L496.36566 340.85626L497.8969 340.85626L497.8969 349.45L496.80316 349.45L496.80316 342.2625L494.30316 349.45L493.2719 349.45L490.78754 342.1375L490.78754 349.45L489.6938 349.45ZM502.67816 349.45L502.67816 348.52814Q501.9438 349.59064 500.6938 349.59064Q500.1469 349.59064 499.66254 349.3875Q499.1938 349.16876 498.9594 348.85626Q498.72504 348.52814 498.6313 348.0594Q498.5688 347.7625 498.5688 347.075L498.5688 343.23126L499.6313 343.23126L499.6313 346.6844Q499.6313 347.4969 499.6938 347.79376Q499.78754 348.2 500.10004 348.45Q500.42816 348.6844 500.91254 348.6844Q501.3813 348.6844 501.78754 348.45Q502.2094 348.2 502.3813 347.77814Q502.5688 347.35626 502.5688 346.5594L502.5688 343.23126L503.61566 343.23126L503.61566 349.45L502.67816 349.45ZM505.5688 349.45L505.5688 340.85626L506.6313 340.85626L506.6313 349.45L505.5688 349.45ZM510.8969 348.5125L511.05316 349.4344Q510.60004 349.52814 510.2563 349.52814Q509.67816 349.52814 509.36566 349.35626Q509.05316 349.16876 508.91254 348.8719Q508.78754 348.575 508.78754 347.6219L508.78754 344.04376L508.0219 344.04376L508.0219 343.23126L508.78754 343.23126L508.78754 341.6844L509.8344 341.0594L509.8344 343.23126L510.8969 343.23126L510.8969 344.04376L509.8344 344.04376L509.8344 347.6844Q509.8344 348.1375 509.8813 348.2625Q509.9438 348.3875 510.0688 348.46564Q510.1938 348.54376 510.42816 348.54376Q510.61566 348.54376 510.8969 348.5125ZM511.60004 342.075L511.60004 340.85626L512.66254 340.85626L512.66254 342.075L511.60004 342.075ZM511.60004 349.45L511.60004 343.23126L512.66254 343.23126L512.66254 349.45L511.60004 349.45ZM514.60004 351.84064L514.60004 343.23126L515.55316 343.23126L515.55316 344.02814Q515.8969 343.5594 516.3188 343.325Q516.7563 343.09064 517.36566 343.09064Q518.16254 343.09064 518.7719 343.4969Q519.3813 343.90314 519.67816 344.65314Q519.99066 345.40314 519.99066 346.29376Q519.99066 347.2469 519.6469 348.0125Q519.3188 348.77814 518.66254 349.1844Q518.0063 349.59064 517.28754 349.59064Q516.7563 349.59064 516.3344 349.3719Q515.91254 349.1375 515.6469 348.8094L515.6469 351.84064L514.60004 351.84064ZM515.55316 346.3719Q515.55316 347.575 516.03754 348.15314Q516.5219 348.71564 517.2094 348.71564Q517.91254 348.71564 518.41254 348.1219Q518.91254 347.52814 518.91254 346.27814Q518.91254 345.09064 518.42816 344.5125Q517.9438 343.91876 517.2563 343.91876Q516.5844 343.91876 516.0688 344.54376Q515.55316 345.16876 515.55316 346.3719ZM521.5688 349.45L521.5688 340.85626L522.6313 340.85626L522.6313 349.45L521.5688 349.45ZM528.85004 347.45L529.9438 347.575Q529.6938 348.52814 528.99066 349.0594Q528.28754 349.59064 527.2094 349.59064Q525.85004 349.59064 525.03754 348.7469Q524.24066 347.90314 524.24066 346.3875Q524.24066 344.825 525.05316 343.96564Q525.86566 343.09064 527.1469 343.09064Q528.3969 343.09064 529.17816 343.9344Q529.97504 344.77814 529.97504 346.325Q529.97504 346.41876 529.97504 346.60626L525.3344 346.60626Q525.3969 347.6375 525.91254 348.1844Q526.42816 348.71564 527.2094 348.71564Q527.78754 348.71564 528.1938 348.41876Q528.61566 348.10626 528.85004 347.45ZM525.3969 345.7469L528.86566 345.7469Q528.80316 344.95 528.47504 344.5594Q527.9594 343.95 527.16254 343.95Q526.42816 343.95 525.92816 344.4344Q525.4438 344.91876 525.3969 345.7469ZM531.17816 346.8719L531.17816 345.8094L534.42816 345.8094L534.42816 346.8719L531.17816 346.8719ZM535.74066 349.45L535.74066 340.85626L539.55316 340.85626Q540.7094 340.85626 541.30316 341.09064Q541.8969 341.325 542.2563 341.91876Q542.61566 342.4969 542.61566 343.2Q542.61566 344.1219 542.0219 344.7469Q541.42816 345.3719 540.1938 345.54376Q540.6469 345.7625 540.8813 345.96564Q541.3813 346.41876 541.8188 347.10626L543.3188 349.45L541.8813 349.45L540.7563 347.66876Q540.2563 346.8875 539.92816 346.48126Q539.61566 346.075 539.35004 345.91876Q539.10004 345.7469 538.8344 345.66876Q538.6469 345.6375 538.2094 345.6375L536.8813 345.6375L536.8813 349.45L535.74066 349.45ZM536.8813 344.65314L539.3344 344.65314Q540.10004 344.65314 540.53754 344.4969Q540.99066 344.325 541.2094 343.98126Q541.4438 343.6219 541.4438 343.2Q541.4438 342.59064 540.99066 342.2Q540.55316 341.8094 539.60004 341.8094L536.8813 341.8094L536.8813 344.65314ZM548.67816 349.45L548.67816 348.52814Q547.9438 349.59064 546.6938 349.59064Q546.1469 349.59064 545.66254 349.3875Q545.1938 349.16876 544.9594 348.85626Q544.72504 348.52814 544.6313 348.0594Q544.5688 347.7625 544.5688 347.075L544.5688 343.23126L545.6313 343.23126L545.6313 346.6844Q545.6313 347.4969 545.6938 347.79376Q545.78754 348.2 546.10004 348.45Q546.42816 348.6844 546.91254 348.6844Q547.3813 348.6844 547.78754 348.45Q548.2094 348.2 548.3813 347.77814Q548.5688 347.35626 548.5688 346.5594L548.5688 343.23126L549.61566 343.23126L549.61566 349.45L548.67816 349.45ZM551.17816 347.59064L552.2094 347.4344Q552.30316 348.0594 552.6938 348.3875Q553.10004 348.71564 553.8344 348.71564Q554.55316 348.71564 554.8969 348.4344Q555.2563 348.1375 555.2563 347.73126Q555.2563 347.3719 554.9438 347.16876Q554.72504 347.02814 553.86566 346.8094Q552.7094 346.5125 552.2563 346.3094Q551.8188 346.09064 551.5844 345.71564Q551.35004 345.34064 551.35004 344.8719Q551.35004 344.46564 551.53754 344.10626Q551.72504 343.7469 552.05316 343.5125Q552.30316 343.34064 552.72504 343.21564Q553.1469 343.09064 553.6469 343.09064Q554.36566 343.09064 554.91254 343.3094Q555.47504 343.5125 555.74066 343.8719Q556.0063 344.23126 556.10004 344.825L555.0688 344.96564Q555.0063 344.4969 554.66254 344.23126Q554.3344 343.95 553.7094 343.95Q552.99066 343.95 552.67816 344.2Q552.36566 344.4344 552.36566 344.7625Q552.36566 344.96564 552.49066 345.1219Q552.6313 345.29376 552.8969 345.40314Q553.05316 345.46564 553.8344 345.66876Q554.9594 345.98126 555.3969 346.16876Q555.8344 346.35626 556.0844 346.71564Q556.3344 347.075 556.3344 347.6219Q556.3344 348.15314 556.0219 348.6219Q555.72504 349.075 555.1469 349.34064Q554.5688 349.59064 553.8344 349.59064Q552.61566 349.59064 551.97504 349.09064Q551.35004 348.575 551.17816 347.59064ZM560.8969 348.5125L561.05316 349.4344Q560.60004 349.52814 560.2563 349.52814Q559.67816 349.52814 559.36566 349.35626Q559.05316 349.16876 558.91254 348.8719Q558.78754 348.575 558.78754 347.6219L558.78754 344.04376L558.0219 344.04376L558.0219 343.23126L558.78754 343.23126L558.78754 341.6844L559.8344 341.0594L559.8344 343.23126L560.8969 343.23126L560.8969 344.04376L559.8344 344.04376L559.8344 347.6844Q559.8344 348.1375 559.8813 348.2625Q559.9438 348.3875 560.0688 348.46564Q560.1938 348.54376 560.42816 348.54376Q560.61566 348.54376 560.8969 348.5125Z" fill-rule="nonzero"/><path fill="#9900ff" d="M100.0 20.55C100.0 19.997715 100.447716 19.55 101.0 19.55L111.0 19.55C111.552284 19.55 112.0 19.997715 112.0 20.55L112.0 30.55C112.0 31.102285 111.552284 31.55 111.0 31.55L101.0 31.55C100.447716 31.55 100.0 31.102285 100.0 30.55Z" fill-rule="nonzero"/><path fill="#1a1a1a" d="M120.546875 26.784374L121.609375 26.690624Q121.6875 27.346874 121.96875 27.753124Q122.25 28.159374 122.828125 28.425Q123.421875 28.675 124.15625 28.675Q124.796875 28.675 125.296875 28.4875Q125.796875 28.284374 126.03125 27.95625Q126.28125 27.6125 126.28125 27.221874Q126.28125 26.815624 126.046875 26.51875Q125.8125 26.20625 125.28125 26.003124Q124.921875 25.8625 123.734375 25.58125Q122.5625 25.3 122.09375 25.05Q121.46875 24.721874 121.171875 24.253124Q120.875 23.76875 120.875 23.175Q120.875 22.534374 121.234375 21.971874Q121.609375 21.39375 122.3125 21.1125Q123.03125 20.815624 123.890625 20.815624Q124.84375 20.815624 125.578125 21.128124Q126.3125 21.425 126.703125 22.034374Q127.09375 22.628124 127.125 23.378124L126.03125 23.45625Q125.9375 22.64375 125.421875 22.2375Q124.921875 21.815624 123.9375 21.815624Q122.90625 21.815624 122.4375 22.190624Q121.96875 22.565624 121.96875 23.096874Q121.96875 23.565624 122.296875 23.8625Q122.625 24.159374 124.0 24.471874Q125.390625 24.784374 125.90625 25.01875Q126.65625 25.378124 127.015625 25.909374Q127.375 26.425 127.375 27.128124Q127.375 27.815624 126.984375 28.425Q126.59375 29.01875 125.859375 29.3625Q125.125 29.690624 124.203125 29.690624Q123.03125 29.690624 122.234375 29.3625Q121.453125 29.01875 121.0 28.33125Q120.5625 27.64375 120.546875 26.784374ZM131.09375 28.6125L131.25 29.534374Q130.79688 29.628124 130.45312 29.628124Q129.875 29.628124 129.5625 29.45625Q129.25 29.26875 129.10938 28.971874Q128.98438 28.675 128.98438 27.721874L128.98438 24.14375L128.21875 24.14375L128.21875 23.33125L128.98438 23.33125L128.98438 21.784374L130.03125 21.159374L130.03125 23.33125L131.09375 23.33125L131.09375 24.14375L130.03125 24.14375L130.03125 27.784374Q130.03125 28.2375 130.07812 28.3625Q130.14062 28.4875 130.26562 28.565624Q130.39062 28.64375 130.625 28.64375Q130.8125 28.64375 131.09375 28.6125ZM135.85938 28.784374Q135.26562 29.284374 134.71875 29.4875Q134.1875 29.690624 133.5625 29.690624Q132.53125 29.690624 131.98438 29.190624Q131.4375 28.690624 131.4375 27.909374Q131.4375 27.45625 131.64062 27.08125Q131.84375 26.690624 132.1875 26.471874Q132.53125 26.2375 132.95312 26.128124Q133.25 26.034374 133.89062 25.95625Q135.15625 25.815624 135.76562 25.596874Q135.76562 25.378124 135.76562 25.33125Q135.76562 24.675 135.46875 24.409374Q135.0625 24.065624 134.26562 24.065624Q133.53125 24.065624 133.17188 24.33125Q132.8125 24.58125 132.64062 25.2375L131.60938 25.096874Q131.75 24.440624 132.07812 24.034374Q132.40625 23.628124 133.01562 23.409374Q133.625 23.190624 134.42188 23.190624Q135.21875 23.190624 135.71875 23.378124Q136.21875 23.565624 136.45312 23.846874Q136.6875 24.128124 136.78125 24.565624Q136.82812 24.83125 136.82812 25.534374L136.82812 26.940624Q136.82812 28.409374 136.89062 28.8Q136.96875 29.190624 137.17188 29.55L136.0625 29.55Q135.90625 29.221874 135.85938 28.784374ZM135.76562 26.425Q135.1875 26.659374 134.04688 26.83125Q133.39062 26.925 133.125 27.05Q132.85938 27.159374 132.70312 27.378124Q132.5625 27.596874 132.5625 27.878124Q132.5625 28.3 132.875 28.58125Q133.20312 28.8625 133.8125 28.8625Q134.42188 28.8625 134.89062 28.596874Q135.375 28.33125 135.59375 27.8625Q135.76562 27.503124 135.76562 26.815624L135.76562 26.425ZM139.76562 29.55L138.78125 29.55L138.78125 20.95625L139.84375 20.95625L139.84375 24.01875Q140.51562 23.190624 141.54688 23.190624Q142.125 23.190624 142.625 23.425Q143.14062 23.64375 143.46875 24.065624Q143.8125 24.4875 144.0 25.08125Q144.1875 25.675 144.1875 26.346874Q144.1875 27.940624 143.39062 28.815624Q142.59375 29.690624 141.5 29.690624Q140.39062 29.690624 139.76562 28.76875L139.76562 29.55ZM139.75 26.39375Q139.75 27.503124 140.0625 28.003124Q140.5625 28.815624 141.40625 28.815624Q142.09375 28.815624 142.59375 28.221874Q143.10938 27.628124 143.10938 26.425Q143.10938 25.20625 142.625 24.628124Q142.14062 24.05 141.45312 24.05Q140.76562 24.05 140.25 24.659374Q139.75 25.253124 139.75 26.39375ZM145.76562 29.55L145.76562 20.95625L146.82812 20.95625L146.82812 29.55L145.76562 29.55ZM153.04688 27.55L154.14062 27.675Q153.89062 28.628124 153.1875 29.159374Q152.48438 29.690624 151.40625 29.690624Q150.04688 29.690624 149.23438 28.846874Q148.4375 28.003124 148.4375 26.4875Q148.4375 24.925 149.25 24.065624Q150.0625 23.190624 151.34375 23.190624Q152.59375 23.190624 153.375 24.034374Q154.17188 24.878124 154.17188 26.425Q154.17188 26.51875 154.17188 26.70625L149.53125 26.70625Q149.59375 27.7375 150.10938 28.284374Q150.625 28.815624 151.40625 28.815624Q151.98438 28.815624 152.39062 28.51875Q152.8125 28.20625 153.04688 27.55ZM149.59375 25.846874L153.0625 25.846874Q153.0 25.05 152.67188 24.659374Q152.15625 24.05 151.35938 24.05Q150.625 24.05 150.125 24.534374Q149.64062 25.01875 149.59375 25.846874ZM162.0625 26.534374L163.1875 26.83125Q162.82812 28.221874 161.90625 28.95625Q160.98438 29.690624 159.64062 29.690624Q158.25 29.690624 157.375 29.128124Q156.5 28.565624 156.04688 27.503124Q155.59375 26.425 155.59375 25.190624Q155.59375 23.846874 156.10938 22.846874Q156.625 21.846874 157.5625 21.33125Q158.51562 20.815624 159.65625 20.815624Q160.9375 20.815624 161.8125 21.471874Q162.70312 22.128124 163.04688 23.315624L161.92188 23.58125Q161.625 22.64375 161.04688 22.221874Q160.48438 21.784374 159.625 21.784374Q158.64062 21.784374 157.96875 22.26875Q157.3125 22.7375 157.03125 23.534374Q156.76562 24.33125 156.76562 25.190624Q156.76562 26.284374 157.07812 27.096874Q157.40625 27.909374 158.07812 28.315624Q158.75 28.721874 159.54688 28.721874Q160.5 28.721874 161.15625 28.175Q161.82812 27.628124 162.0625 26.534374ZM164.40625 26.440624Q164.40625 24.70625 165.35938 23.878124Q166.15625 23.190624 167.3125 23.190624Q168.59375 23.190624 169.40625 24.034374Q170.23438 24.8625 170.23438 26.346874Q170.23438 27.55 169.875 28.2375Q169.51562 28.925 168.8125 29.315624Q168.125 29.690624 167.3125 29.690624Q166.01562 29.690624 165.20312 28.8625Q164.40625 28.01875 164.40625 26.440624ZM165.48438 26.440624Q165.48438 27.628124 166.0 28.221874Q166.53125 28.815624 167.3125 28.815624Q168.10938 28.815624 168.625 28.221874Q169.14062 27.628124 169.14062 26.409374Q169.14062 25.253124 168.60938 24.659374Q168.09375 24.065624 167.3125 24.065624Q166.53125 24.065624 166.0 24.659374Q165.48438 25.2375 165.48438 26.440624ZM175.82812 29.55L175.82812 28.76875Q175.23438 29.690624 174.09375 29.690624Q173.34375 29.690624 172.71875 29.284374Q172.09375 28.8625 171.75 28.128124Q171.40625 27.39375 171.40625 26.440624Q171.40625 25.51875 171.71875 24.753124Q172.03125 23.9875 172.65625 23.596874Q173.28125 23.190624 174.04688 23.190624Q174.60938 23.190624 175.04688 23.425Q175.48438 23.659374 175.76562 24.034374L175.76562 20.95625L176.8125 20.95625L176.8125 29.55L175.82812 29.55ZM172.5 26.440624Q172.5 27.64375 173.0 28.2375Q173.5 28.815624 174.1875 28.815624Q174.875 28.815624 175.35938 28.253124Q175.84375 27.690624 175.84375 26.534374Q175.84375 25.253124 175.34375 24.659374Q174.85938 24.065624 174.14062 24.065624Q173.4375 24.065624 172.96875 24.64375Q172.5 25.20625 172.5 26.440624ZM183.04688 27.55L184.14062 27.675Q183.89062 28.628124 183.1875 29.159374Q182.48438 29.690624 181.40625 29.690624Q180.04688 29.690624 179.23438 28.846874Q178.4375 28.003124 178.4375 26.4875Q178.4375 24.925 179.25 24.065624Q180.0625 23.190624 181.34375 23.190624Q182.59375 23.190624 183.375 24.034374Q184.17188 24.878124 184.17188 26.425Q184.17188 26.51875 184.17188 26.70625L179.53125 26.70625Q179.59375 27.7375 180.10938 28.284374Q180.625 28.815624 181.40625 28.815624Q181.98438 28.815624 182.39062 28.51875Q182.8125 28.20625 183.04688 27.55ZM179.59375 25.846874L183.0625 25.846874Q183.0 25.05 182.67188 24.659374Q182.15625 24.05 181.35938 24.05Q180.625 24.05 180.125 24.534374Q179.64062 25.01875 179.59375 25.846874ZM194.04688 28.534374L194.04688 29.55L188.35938 29.55Q188.35938 29.175 188.48438 28.815624Q188.70312 28.2375 189.17188 27.675Q189.65625 27.1125 190.5625 26.378124Q191.96875 25.221874 192.45312 24.55Q192.95312 23.878124 192.95312 23.284374Q192.95312 22.659374 192.5 22.2375Q192.04688 21.8 191.32812 21.8Q190.5625 21.8 190.10938 22.253124Q189.65625 22.70625 189.64062 23.51875L188.5625 23.409374Q188.67188 22.190624 189.39062 21.565624Q190.125 20.925 191.35938 20.925Q192.59375 20.925 193.3125 21.6125Q194.03125 22.3 194.03125 23.315624Q194.03125 23.83125 193.8125 24.33125Q193.60938 24.815624 193.10938 25.378124Q192.625 25.925 191.5 26.878124Q190.54688 27.675 190.26562 27.971874Q190.0 28.253124 189.82812 28.534374L194.04688 28.534374ZM198.375 26.971874L198.375 25.909374L201.625 25.909374L201.625 26.971874L198.375 26.971874ZM205.98438 29.55L205.98438 20.95625L211.78125 20.95625L211.78125 21.971874L207.125 21.971874L207.125 24.628124L211.15625 24.628124L211.15625 25.64375L207.125 25.64375L207.125 29.55L205.98438 29.55ZM213.125 29.55L213.125 20.95625L214.25 20.95625L214.25 29.55L213.125 29.55ZM215.89062 29.55L215.89062 20.95625L217.60938 20.95625L219.64062 27.034374Q219.92188 27.89375 220.04688 28.315624Q220.1875 27.846874 220.5 26.940624L222.5625 20.95625L224.09375 20.95625L224.09375 29.55L223.0 29.55L223.0 22.3625L220.5 29.55L219.46875 29.55L216.98438 22.2375L216.98438 29.55L215.89062 29.55ZM227.375 26.971874L227.375 25.909374L230.625 25.909374L230.625 26.971874L227.375 26.971874ZM234.875 29.55L234.875 20.95625L236.01562 20.95625L236.01562 28.534374L240.25 28.534374L240.25 29.55L234.875 29.55ZM241.40625 26.440624Q241.40625 24.70625 242.35938 23.878124Q243.15625 23.190624 244.3125 23.190624Q245.59375 23.190624 246.40625 24.034374Q247.23438 24.8625 247.23438 26.346874Q247.23438 27.55 246.875 28.2375Q246.51562 28.925 245.8125 29.315624Q245.125 29.690624 244.3125 29.690624Q243.01562 29.690624 242.20312 28.8625Q241.40625 28.01875 241.40625 26.440624ZM242.48438 26.440624Q242.48438 27.628124 243.0 28.221874Q243.53125 28.815624 244.3125 28.815624Q245.10938 28.815624 245.625 28.221874Q246.14062 27.628124 246.14062 26.409374Q246.14062 25.253124 245.60938 24.659374Q245.09375 24.065624 244.3125 24.065624Q243.53125 24.065624 243.0 24.659374Q242.48438 25.2375 242.48438 26.440624ZM248.79688 29.55L248.79688 23.33125L249.73438 23.33125L249.73438 24.20625Q250.42188 23.190624 251.71875 23.190624Q252.28125 23.190624 252.75 23.39375Q253.23438 23.596874 253.46875 23.925Q253.70312 24.253124 253.79688 24.690624Q253.84375 24.9875 253.84375 25.721874L253.84375 29.55L252.79688 29.55L252.79688 25.76875Q252.79688 25.1125 252.67188 24.8Q252.54688 24.4875 252.23438 24.3Q251.92188 24.096874 251.5 24.096874Q250.82812 24.096874 250.32812 24.534374Q249.84375 24.95625 249.84375 26.14375L249.84375 29.55L248.79688 29.55ZM255.59375 30.065624L256.625 30.221874Q256.6875 30.690624 256.98438 30.909374Q257.375 31.20625 258.04688 31.20625Q258.78125 31.20625 259.17188 30.909374Q259.57812 30.6125 259.71875 30.096874Q259.8125 29.76875 259.79688 28.7375Q259.10938 29.55 258.07812 29.55Q256.79688 29.55 256.09375 28.628124Q255.39062 27.690624 255.39062 26.409374Q255.39062 25.51875 255.70312 24.76875Q256.03125 24.003124 256.64062 23.596874Q257.25 23.190624 258.07812 23.190624Q259.1875 23.190624 259.90625 24.08125L259.90625 23.33125L260.875 23.33125L260.875 28.70625Q260.875 30.159374 260.57812 30.76875Q260.28125 31.378124 259.64062 31.721874Q259.0 32.08125 258.0625 32.08125Q256.95312 32.08125 256.26562 31.58125Q255.57812 31.08125 255.59375 30.065624ZM256.46875 26.33125Q256.46875 27.55 256.95312 28.1125Q257.4375 28.675 258.17188 28.675Q258.90625 28.675 259.39062 28.1125Q259.89062 27.55 259.89062 26.3625Q259.89062 25.221874 259.375 24.64375Q258.875 24.065624 258.15625 24.065624Q257.45312 24.065624 256.95312 24.64375Q256.46875 25.20625 256.46875 26.33125ZM272.0625 26.534374L273.1875 26.83125Q272.82812 28.221874 271.90625 28.95625Q270.98438 29.690624 269.64062 29.690624Q268.25 29.690624 267.375 29.128124Q266.5 28.565624 266.04688 27.503124Q265.59375 26.425 265.59375 25.190624Q265.59375 23.846874 266.10938 22.846874Q266.625 21.846874 267.5625 21.33125Q268.51562 20.815624 269.65625 20.815624Q270.9375 20.815624 271.8125 21.471874Q272.70312 22.128124 273.04688 23.315624L271.92188 23.58125Q271.625 22.64375 271.04688 22.221874Q270.48438 21.784374 269.625 21.784374Q268.64062 21.784374 267.96875 22.26875Q267.3125 22.7375 267.03125 23.534374Q266.76562 24.33125 266.76562 25.190624Q266.76562 26.284374 267.07812 27.096874Q267.40625 27.909374 268.07812 28.315624Q268.75 28.721874 269.54688 28.721874Q270.5 28.721874 271.15625 28.175Q271.82812 27.628124 272.0625 26.534374ZM274.40625 26.440624Q274.40625 24.70625 275.35938 23.878124Q276.15625 23.190624 277.3125 23.190624Q278.59375 23.190624 279.40625 24.034374Q280.23438 24.8625 280.23438 26.346874Q280.23438 27.55 279.875 28.2375Q279.51562 28.925 278.8125 29.315624Q278.125 29.690624 277.3125 29.690624Q276.01562 29.690624 275.20312 28.8625Q274.40625 28.01875 274.40625 26.440624ZM275.48438 26.440624Q275.48438 27.628124 276.0 28.221874Q276.53125 28.815624 277.3125 28.815624Q278.10938 28.815624 278.625 28.221874Q279.14062 27.628124 279.14062 26.409374Q279.14062 25.253124 278.60938 24.659374Q278.09375 24.065624 277.3125 24.065624Q276.53125 24.065624 276.0 24.659374Q275.48438 25.2375 275.48438 26.440624ZM281.79688 29.55L281.79688 23.33125L282.73438 23.33125L282.73438 24.20625Q283.42188 23.190624 284.71875 23.190624Q285.28125 23.190624 285.75 23.39375Q286.23438 23.596874 286.46875 23.925Q286.70312 24.253124 286.79688 24.690624Q286.84375 24.9875 286.84375 25.721874L286.84375 29.55L285.79688 29.55L285.79688 25.76875Q285.79688 25.1125 285.67188 24.8Q285.54688 24.4875 285.23438 24.3Q284.92188 24.096874 284.5 24.096874Q283.82812 24.096874 283.32812 24.534374Q282.84375 24.95625 282.84375 26.14375L282.84375 29.55L281.79688 29.55ZM291.09375 28.6125L291.25 29.534374Q290.79688 29.628124 290.45312 29.628124Q289.875 29.628124 289.5625 29.45625Q289.25 29.26875 289.10938 28.971874Q288.98438 28.675 288.98438 27.721874L288.98438 24.14375L288.21875 24.14375L288.21875 23.33125L288.98438 23.33125L288.98438 21.784374L290.03125 21.159374L290.03125 23.33125L291.09375 23.33125L291.09375 24.14375L290.03125 24.14375L290.03125 27.784374Q290.03125 28.2375 290.07812 28.3625Q290.14062 28.4875 290.26562 28.565624Q290.39062 28.64375 290.625 28.64375Q290.8125 28.64375 291.09375 28.6125ZM296.04688 27.55L297.14062 27.675Q296.89062 28.628124 296.1875 29.159374Q295.48438 29.690624 294.40625 29.690624Q293.04688 29.690624 292.23438 28.846874Q291.4375 28.003124 291.4375 26.4875Q291.4375 24.925 292.25 24.065624Q293.0625 23.190624 294.34375 23.190624Q295.59375 23.190624 296.375 24.034374Q297.17188 24.878124 297.17188 26.425Q297.17188 26.51875 297.17188 26.70625L292.53125 26.70625Q292.59375 27.7375 293.10938 28.284374Q293.625 28.815624 294.40625 28.815624Q294.98438 28.815624 295.39062 28.51875Q295.8125 28.20625 296.04688 27.55ZM292.59375 25.846874L296.0625 25.846874Q296.0 25.05 295.67188 24.659374Q295.15625 24.05 294.35938 24.05Q293.625 24.05 293.125 24.534374Q292.64062 25.01875 292.59375 25.846874ZM298.09375 29.55L300.35938 26.315624L298.26562 23.33125L299.57812 23.33125L300.53125 24.784374Q300.79688 25.20625 300.96875 25.4875Q301.21875 25.096874 301.4375 24.8L302.48438 23.33125L303.75 23.33125L301.59375 26.253124L303.90625 29.55L302.625 29.55L301.34375 27.6125L301.0 27.096874L299.35938 29.55L298.09375 29.55ZM306.09375 28.6125L306.25 29.534374Q305.79688 29.628124 305.45312 29.628124Q304.875 29.628124 304.5625 29.45625Q304.25 29.26875 304.10938 28.971874Q303.98438 28.675 303.98438 27.721874L303.98438 24.14375L303.21875 24.14375L303.21875 23.33125L303.98438 23.33125L303.98438 21.784374L305.03125 21.159374L305.03125 23.33125L306.09375 23.33125L306.09375 24.14375L305.03125 24.14375L305.03125 27.784374Q305.03125 28.2375 305.07812 28.3625Q305.14062 28.4875 305.26562 28.565624Q305.39062 28.64375 305.625 28.64375Q305.8125 28.64375 306.09375 28.6125Z" fill-rule="nonzero"/><path fill="#a4c2f4" d="M322.0 20.55C322.0 19.997715 322.44772 19.55 323.0 19.55L333.0 19.55C333.55228 19.55 334.0 19.997715 334.0 20.55L334.0 30.55C334.0 31.102285 333.55228 31.55 333.0 31.55L323.0 31.55C322.44772 31.55 322.0 31.102285 322.0 30.55Z" fill-rule="nonzero"/><path fill="#1a1a1a" d="M346.85938 27.26875L347.89062 27.409374Q347.71875 28.471874 347.01562 29.08125Q346.3125 29.690624 345.29688 29.690624Q344.01562 29.690624 343.23438 28.8625Q342.46875 28.01875 342.46875 26.45625Q342.46875 25.45625 342.79688 24.70625Q343.14062 23.940624 343.8125 23.565624Q344.5 23.190624 345.3125 23.190624Q346.3125 23.190624 346.95312 23.70625Q347.60938 24.20625 347.79688 25.159374L346.76562 25.315624Q346.625 24.690624 346.25 24.378124Q345.875 24.05 345.34375 24.05Q344.54688 24.05 344.04688 24.628124Q343.54688 25.190624 343.54688 26.425Q343.54688 27.690624 344.03125 28.253124Q344.51562 28.815624 345.28125 28.815624Q345.90625 28.815624 346.3125 28.440624Q346.73438 28.065624 346.85938 27.26875ZM348.40625 26.440624Q348.40625 24.70625 349.35938 23.878124Q350.15625 23.190624 351.3125 23.190624Q352.59375 23.190624 353.40625 24.034374Q354.23438 24.8625 354.23438 26.346874Q354.23438 27.55 353.875 28.2375Q353.51562 28.925 352.8125 29.315624Q352.125 29.690624 351.3125 29.690624Q350.01562 29.690624 349.20312 28.8625Q348.40625 28.01875 348.40625 26.440624ZM349.48438 26.440624Q349.48438 27.628124 350.0 28.221874Q350.53125 28.815624 351.3125 28.815624Q352.10938 28.815624 352.625 28.221874Q353.14062 27.628124 353.14062 26.409374Q353.14062 25.253124 352.60938 24.659374Q352.09375 24.065624 351.3125 24.065624Q350.53125 24.065624 350.0 24.659374Q349.48438 25.2375 349.48438 26.440624ZM359.82812 29.55L359.82812 28.76875Q359.23438 29.690624 358.09375 29.690624Q357.34375 29.690624 356.71875 29.284374Q356.09375 28.8625 355.75 28.128124Q355.40625 27.39375 355.40625 26.440624Q355.40625 25.51875 355.71875 24.753124Q356.03125 23.9875 356.65625 23.596874Q357.28125 23.190624 358.04688 23.190624Q358.60938 23.190624 359.04688 23.425Q359.48438 23.659374 359.76562 24.034374L359.76562 20.95625L360.8125 20.95625L360.8125 29.55L359.82812 29.55ZM356.5 26.440624Q356.5 27.64375 357.0 28.2375Q357.5 28.815624 358.1875 28.815624Q358.875 28.815624 359.35938 28.253124Q359.84375 27.690624 359.84375 26.534374Q359.84375 25.253124 359.34375 24.659374Q358.85938 24.065624 358.14062 24.065624Q357.4375 24.065624 356.96875 24.64375Q356.5 25.20625 356.5 26.440624ZM367.04688 27.55L368.14062 27.675Q367.89062 28.628124 367.1875 29.159374Q366.48438 29.690624 365.40625 29.690624Q364.04688 29.690624 363.23438 28.846874Q362.4375 28.003124 362.4375 26.4875Q362.4375 24.925 363.25 24.065624Q364.0625 23.190624 365.34375 23.190624Q366.59375 23.190624 367.375 24.034374Q368.17188 24.878124 368.17188 26.425Q368.17188 26.51875 368.17188 26.70625L363.53125 26.70625Q363.59375 27.7375 364.10938 28.284374Q364.625 28.815624 365.40625 28.815624Q365.98438 28.815624 366.39062 28.51875Q366.8125 28.20625 367.04688 27.55ZM363.59375 25.846874L367.0625 25.846874Q367.0 25.05 366.67188 24.659374Q366.15625 24.05 365.35938 24.05Q364.625 24.05 364.125 24.534374Q363.64062 25.01875 363.59375 25.846874ZM369.76562 29.55L369.76562 20.95625L370.82812 20.95625L370.82812 29.55L369.76562 29.55ZM372.76562 29.55L372.76562 20.95625L373.82812 20.95625L373.82812 29.55L372.76562 29.55ZM379.85938 28.784374Q379.26562 29.284374 378.71875 29.4875Q378.1875 29.690624 377.5625 29.690624Q376.53125 29.690624 375.98438 29.190624Q375.4375 28.690624 375.4375 27.909374Q375.4375 27.45625 375.64062 27.08125Q375.84375 26.690624 376.1875 26.471874Q376.53125 26.2375 376.95312 26.128124Q377.25 26.034374 377.89062 25.95625Q379.15625 25.815624 379.76562 25.596874Q379.76562 25.378124 379.76562 25.33125Q379.76562 24.675 379.46875 24.409374Q379.0625 24.065624 378.26562 24.065624Q377.53125 24.065624 377.17188 24.33125Q376.8125 24.58125 376.64062 25.2375L375.60938 25.096874Q375.75 24.440624 376.07812 24.034374Q376.40625 23.628124 377.01562 23.409374Q377.625 23.190624 378.42188 23.190624Q379.21875 23.190624 379.71875 23.378124Q380.21875 23.565624 380.45312 23.846874Q380.6875 24.128124 380.78125 24.565624Q380.82812 24.83125 380.82812 25.534374L380.82812 26.940624Q380.82812 28.409374 380.89062 28.8Q380.96875 29.190624 381.17188 29.55L380.0625 29.55Q379.90625 29.221874 379.85938 28.784374ZM379.76562 26.425Q379.1875 26.659374 378.04688 26.83125Q377.39062 26.925 377.125 27.05Q376.85938 27.159374 376.70312 27.378124Q376.5625 27.596874 376.5625 27.878124Q376.5625 28.3 376.875 28.58125Q377.20312 28.8625 377.8125 28.8625Q378.42188 28.8625 378.89062 28.596874Q379.375 28.33125 379.59375 27.8625Q379.76562 27.503124 379.76562 26.815624L379.76562 26.425ZM382.79688 29.55L382.79688 23.33125L383.73438 23.33125L383.73438 24.20625Q384.03125 23.7375 384.51562 23.471874Q385.0 23.190624 385.625 23.190624Q386.3125 23.190624 386.75 23.471874Q387.20312 23.753124 387.375 24.26875Q388.125 23.190624 389.29688 23.190624Q390.23438 23.190624 390.71875 23.70625Q391.21875 24.20625 391.21875 25.284374L391.21875 29.55L390.17188 29.55L390.17188 25.628124Q390.17188 25.003124 390.0625 24.721874Q389.96875 24.440624 389.70312 24.26875Q389.4375 24.096874 389.0625 24.096874Q388.40625 24.096874 387.96875 24.534374Q387.54688 24.971874 387.54688 25.940624L387.54688 29.55L386.48438 29.55L386.48438 25.503124Q386.48438 24.8 386.21875 24.45625Q385.96875 24.096874 385.39062 24.096874Q384.9375 24.096874 384.5625 24.33125Q384.1875 24.565624 384.01562 25.01875Q383.84375 25.471874 383.84375 26.315624L383.84375 29.55L382.79688 29.55ZM397.85938 28.784374Q397.26562 29.284374 396.71875 29.4875Q396.1875 29.690624 395.5625 29.690624Q394.53125 29.690624 393.98438 29.190624Q393.4375 28.690624 393.4375 27.909374Q393.4375 27.45625 393.64062 27.08125Q393.84375 26.690624 394.1875 26.471874Q394.53125 26.2375 394.95312 26.128124Q395.25 26.034374 395.89062 25.95625Q397.15625 25.815624 397.76562 25.596874Q397.76562 25.378124 397.76562 25.33125Q397.76562 24.675 397.46875 24.409374Q397.0625 24.065624 396.26562 24.065624Q395.53125 24.065624 395.17188 24.33125Q394.8125 24.58125 394.64062 25.2375L393.60938 25.096874Q393.75 24.440624 394.07812 24.034374Q394.40625 23.628124 395.01562 23.409374Q395.625 23.190624 396.42188 23.190624Q397.21875 23.190624 397.71875 23.378124Q398.21875 23.565624 398.45312 23.846874Q398.6875 24.128124 398.78125 24.565624Q398.82812 24.83125 398.82812 25.534374L398.82812 26.940624Q398.82812 28.409374 398.89062 28.8Q398.96875 29.190624 399.17188 29.55L398.0625 29.55Q397.90625 29.221874 397.85938 28.784374ZM397.76562 26.425Q397.1875 26.659374 396.04688 26.83125Q395.39062 26.925 395.125 27.05Q394.85938 27.159374 394.70312 27.378124Q394.5625 27.596874 394.5625 27.878124Q394.5625 28.3 394.875 28.58125Q395.20312 28.8625 395.8125 28.8625Q396.42188 28.8625 396.89062 28.596874Q397.375 28.33125 397.59375 27.8625Q397.76562 27.503124 397.76562 26.815624L397.76562 26.425ZM400.0 29.690624L402.48438 20.815624L403.32812 20.815624L400.84375 29.690624L400.0 29.690624ZM410.0625 26.534374L411.1875 26.83125Q410.82812 28.221874 409.90625 28.95625Q408.98438 29.690624 407.64062 29.690624Q406.25 29.690624 405.375 29.128124Q404.5 28.565624 404.04688 27.503124Q403.59375 26.425 403.59375 25.190624Q403.59375 23.846874 404.10938 22.846874Q404.625 21.846874 405.5625 21.33125Q406.51562 20.815624 407.65625 20.815624Q408.9375 20.815624 409.8125 21.471874Q410.70312 22.128124 411.04688 23.315624L409.92188 23.58125Q409.625 22.64375 409.04688 22.221874Q408.48438 21.784374 407.625 21.784374Q406.64062 21.784374 405.96875 22.26875Q405.3125 22.7375 405.03125 23.534374Q404.76562 24.33125 404.76562 25.190624Q404.76562 26.284374 405.07812 27.096874Q405.40625 27.909374 406.07812 28.315624Q406.75 28.721874 407.54688 28.721874Q408.5 28.721874 409.15625 28.175Q409.82812 27.628124 410.0625 26.534374ZM412.40625 26.440624Q412.40625 24.70625 413.35938 23.878124Q414.15625 23.190624 415.3125 23.190624Q416.59375 23.190624 417.40625 24.034374Q418.23438 24.8625 418.23438 26.346874Q418.23438 27.55 417.875 28.2375Q417.51562 28.925 416.8125 29.315624Q416.125 29.690624 415.3125 29.690624Q414.01562 29.690624 413.20312 28.8625Q412.40625 28.01875 412.40625 26.440624ZM413.48438 26.440624Q413.48438 27.628124 414.0 28.221874Q414.53125 28.815624 415.3125 28.815624Q416.10938 28.815624 416.625 28.221874Q417.14062 27.628124 417.14062 26.409374Q417.14062 25.253124 416.60938 24.659374Q416.09375 24.065624 415.3125 24.065624Q414.53125 24.065624 414.0 24.659374Q413.48438 25.2375 413.48438 26.440624ZM423.82812 29.55L423.82812 28.76875Q423.23438 29.690624 422.09375 29.690624Q421.34375 29.690624 420.71875 29.284374Q420.09375 28.8625 419.75 28.128124Q419.40625 27.39375 419.40625 26.440624Q419.40625 25.51875 419.71875 24.753124Q420.03125 23.9875 420.65625 23.596874Q421.28125 23.190624 422.04688 23.190624Q422.60938 23.190624 423.04688 23.425Q423.48438 23.659374 423.76562 24.034374L423.76562 20.95625L424.8125 20.95625L424.8125 29.55L423.82812 29.55ZM420.5 26.440624Q420.5 27.64375 421.0 28.2375Q421.5 28.815624 422.1875 28.815624Q422.875 28.815624 423.35938 28.253124Q423.84375 27.690624 423.84375 26.534374Q423.84375 25.253124 423.34375 24.659374Q422.85938 24.065624 422.14062 24.065624Q421.4375 24.065624 420.96875 24.64375Q420.5 25.20625 420.5 26.440624ZM431.04688 27.55L432.14062 27.675Q431.89062 28.628124 431.1875 29.159374Q430.48438 29.690624 429.40625 29.690624Q428.04688 29.690624 427.23438 28.846874Q426.4375 28.003124 426.4375 26.4875Q426.4375 24.925 427.25 24.065624Q428.0625 23.190624 429.34375 23.190624Q430.59375 23.190624 431.375 24.034374Q432.17188 24.878124 432.17188 26.425Q432.17188 26.51875 432.17188 26.70625L427.53125 26.70625Q427.59375 27.7375 428.10938 28.284374Q428.625 28.815624 429.40625 28.815624Q429.98438 28.815624 430.39062 28.51875Q430.8125 28.20625 431.04688 27.55ZM427.59375 25.846874L431.0625 25.846874Q431.0 25.05 430.67188 24.659374Q430.15625 24.05 429.35938 24.05Q428.625 24.05 428.125 24.534374Q427.64062 25.01875 427.59375 25.846874ZM433.875 29.55L433.875 20.95625L435.01562 20.95625L435.01562 28.534374L439.25 28.534374L439.25 29.55L433.875 29.55ZM440.76562 29.55L440.76562 20.95625L441.82812 20.95625L441.82812 29.55L440.76562 29.55ZM447.85938 28.784374Q447.26562 29.284374 446.71875 29.4875Q446.1875 29.690624 445.5625 29.690624Q444.53125 29.690624 443.98438 29.190624Q443.4375 28.690624 443.4375 27.909374Q443.4375 27.45625 443.64062 27.08125Q443.84375 26.690624 444.1875 26.471874Q444.53125 26.2375 444.95312 26.128124Q445.25 26.034374 445.89062 25.95625Q447.15625 25.815624 447.76562 25.596874Q447.76562 25.378124 447.76562 25.33125Q447.76562 24.675 447.46875 24.409374Q447.0625 24.065624 446.26562 24.065624Q445.53125 24.065624 445.17188 24.33125Q444.8125 24.58125 444.64062 25.2375L443.60938 25.096874Q443.75 24.440624 444.07812 24.034374Q444.40625 23.628124 445.01562 23.409374Q445.625 23.190624 446.42188 23.190624Q447.21875 23.190624 447.71875 23.378124Q448.21875 23.565624 448.45312 23.846874Q448.6875 24.128124 448.78125 24.565624Q448.82812 24.83125 448.82812 25.534374L448.82812 26.940624Q448.82812 28.409374 448.89062 28.8Q448.96875 29.190624 449.17188 29.55L448.0625 29.55Q447.90625 29.221874 447.85938 28.784374ZM447.76562 26.425Q447.1875 26.659374 446.04688 26.83125Q445.39062 26.925 445.125 27.05Q444.85938 27.159374 444.70312 27.378124Q444.5625 27.596874 444.5625 27.878124Q444.5625 28.3 444.875 28.58125Q445.20312 28.8625 445.8125 28.8625Q446.42188 28.8625 446.89062 28.596874Q447.375 28.33125 447.59375 27.8625Q447.76562 27.503124 447.76562 26.815624L447.76562 26.425ZM450.79688 29.55L450.79688 23.33125L451.73438 23.33125L451.73438 24.20625Q452.03125 23.7375 452.51562 23.471874Q453.0 23.190624 453.625 23.190624Q454.3125 23.190624 454.75 23.471874Q455.20312 23.753124 455.375 24.26875Q456.125 23.190624 457.29688 23.190624Q458.23438 23.190624 458.71875 23.70625Q459.21875 24.20625 459.21875 25.284374L459.21875 29.55L458.17188 29.55L458.17188 25.628124Q458.17188 25.003124 458.0625 24.721874Q457.96875 24.440624 457.70312 24.26875Q457.4375 24.096874 457.0625 24.096874Q456.40625 24.096874 455.96875 24.534374Q455.54688 24.971874 455.54688 25.940624L455.54688 29.55L454.48438 29.55L454.48438 25.503124Q454.48438 24.8 454.21875 24.45625Q453.96875 24.096874 453.39062 24.096874Q452.9375 24.096874 452.5625 24.33125Q452.1875 24.565624 452.01562 25.01875Q451.84375 25.471874 451.84375 26.315624L451.84375 29.55L450.79688 29.55ZM465.85938 28.784374Q465.26562 29.284374 464.71875 29.4875Q464.1875 29.690624 463.5625 29.690624Q462.53125 29.690624 461.98438 29.190624Q461.4375 28.690624 461.4375 27.909374Q461.4375 27.45625 461.64062 27.08125Q461.84375 26.690624 462.1875 26.471874Q462.53125 26.2375 462.95312 26.128124Q463.25 26.034374 463.89062 25.95625Q465.15625 25.815624 465.76562 25.596874Q465.76562 25.378124 465.76562 25.33125Q465.76562 24.675 465.46875 24.409374Q465.0625 24.065624 464.26562 24.065624Q463.53125 24.065624 463.17188 24.33125Q462.8125 24.58125 462.64062 25.2375L461.60938 25.096874Q461.75 24.440624 462.07812 24.034374Q462.40625 23.628124 463.01562 23.409374Q463.625 23.190624 464.42188 23.190624Q465.21875 23.190624 465.71875 23.378124Q466.21875 23.565624 466.45312 23.846874Q466.6875 24.128124 466.78125 24.565624Q466.82812 24.83125 466.82812 25.534374L466.82812 26.940624Q466.82812 28.409374 466.89062 28.8Q466.96875 29.190624 467.17188 29.55L466.0625 29.55Q465.90625 29.221874 465.85938 28.784374ZM465.76562 26.425Q465.1875 26.659374 464.04688 26.83125Q463.39062 26.925 463.125 27.05Q462.85938 27.159374 462.70312 27.378124Q462.5625 27.596874 462.5625 27.878124Q462.5625 28.3 462.875 28.58125Q463.20312 28.8625 463.8125 28.8625Q464.42188 28.8625 464.89062 28.596874Q465.375 28.33125 465.59375 27.8625Q465.76562 27.503124 465.76562 26.815624L465.76562 26.425ZM468.375 26.971874L468.375 25.909374L471.625 25.909374L471.625 26.971874L468.375 26.971874ZM472.5625 22.08125L472.5625 21.065624L478.125 21.065624L478.125 21.89375Q477.3125 22.76875 476.5 24.221874Q475.70312 25.659374 475.26562 27.190624Q474.9375 28.26875 474.85938 29.55L473.76562 29.55Q473.78125 28.534374 474.15625 27.096874Q474.54688 25.659374 475.25 24.33125Q475.96875 23.003124 476.78125 22.08125L472.5625 22.08125ZM480.76562 29.55L479.78125 29.55L479.78125 20.95625L480.84375 20.95625L480.84375 24.01875Q481.51562 23.190624 482.54688 23.190624Q483.125 23.190624 483.625 23.425Q484.14062 23.64375 484.46875 24.065624Q484.8125 24.4875 485.0 25.08125Q485.1875 25.675 485.1875 26.346874Q485.1875 27.940624 484.39062 28.815624Q483.59375 29.690624 482.5 29.690624Q481.39062 29.690624 480.76562 28.76875L480.76562 29.55ZM480.75 26.39375Q480.75 27.503124 481.0625 28.003124Q481.5625 28.815624 482.40625 28.815624Q483.09375 28.815624 483.59375 28.221874Q484.10938 27.628124 484.10938 26.425Q484.10938 25.20625 483.625 24.628124Q483.14062 24.05 482.45312 24.05Q481.76562 24.05 481.25 24.659374Q480.75 25.253124 480.75 26.39375ZM486.375 26.971874L486.375 25.909374L489.625 25.909374L489.625 26.971874L486.375 26.971874ZM490.79688 29.55L490.79688 20.95625L491.84375 20.95625L491.84375 24.034374Q492.57812 23.190624 493.70312 23.190624Q494.40625 23.190624 494.90625 23.471874Q495.42188 23.7375 495.64062 24.221874Q495.85938 24.690624 495.85938 25.6125L495.85938 29.55L494.8125 29.55L494.8125 25.6125Q494.8125 24.815624 494.46875 24.45625Q494.125 24.096874 493.5 24.096874Q493.03125 24.096874 492.60938 24.346874Q492.20312 24.58125 492.01562 25.003124Q491.84375 25.409374 491.84375 26.14375L491.84375 29.55L490.79688 29.55ZM498.04688 29.55L498.04688 24.14375L497.10938 24.14375L497.10938 23.33125L498.04688 23.33125L498.04688 22.659374Q498.04688 22.034374 498.15625 21.7375Q498.3125 21.315624 498.6875 21.065624Q499.07812 20.815624 499.76562 20.815624Q500.21875 20.815624 500.75 20.925L500.59375 21.83125Q500.26562 21.784374 499.96875 21.784374Q499.48438 21.784374 499.28125 21.9875Q499.09375 22.190624 499.09375 22.753124L499.09375 23.33125L500.3125 23.33125L500.3125 24.14375L499.09375 24.14375L499.09375 29.55L498.04688 29.55Z" fill-rule="nonzero"/></svg>